<svg id="Layer_1" data-name="Layer 1" xmlns="http://www.w3.org/2000/svg" viewBox="0 0 300 300"><defs><style>.cls-1{fill:#ff6720;}</style></defs><path class="cls-1" d="M225.87,88.25a4.78,4.78,0,0,0-.92-.09,4.34,4.34,0,0,0-4.23,3.43l-4.27,19.9a1.54,1.54,0,0,1-1.25,1.19l-.24,0a1.53,1.53,0,0,1-1.32-.76A74.75,74.75,0,0,0,74.4,149.75a4.34,4.34,0,1,0,8.67,0A66.08,66.08,0,0,1,206.3,116.57a1.53,1.53,0,0,1-1.33,2.29l-.32,0-19.56-4.19a4.05,4.05,0,0,0-.92-.1,4.34,4.34,0,0,0-.9,8.58l33.58,7.2a4.68,4.68,0,0,0,.91.09h.37a4.46,4.46,0,0,0,2-.68A4.3,4.3,0,0,0,222,127l7.2-33.58A4.35,4.35,0,0,0,225.87,88.25Z"/><path class="cls-1" d="M220.49,143.59h-.15a4.34,4.34,0,0,0-4.2,4.48,66.08,66.08,0,0,1-63.86,68.22c-.73,0-1.47,0-2.2,0A66.07,66.07,0,0,1,93.89,185a1.52,1.52,0,0,1,1.3-2.33,1.37,1.37,0,0,1,.4.05L116,188.19a4.34,4.34,0,1,0,2.25-8.38l-33.17-8.9a4.77,4.77,0,0,0-1.12-.14A4.33,4.33,0,0,0,79.75,174l-8.9,33.17a4.34,4.34,0,1,0,8.38,2.25l5-18.64a1.53,1.53,0,0,1,1.25-1.12l.23,0a1.54,1.54,0,0,1,1.29.71A74.37,74.37,0,0,0,150.08,225c.84,0,1.68,0,2.49,0a74.76,74.76,0,0,0,72.24-77.18A4.31,4.31,0,0,0,220.49,143.59Z"/></svg>