<svg id="Layer_1" data-name="Layer 1" xmlns="http://www.w3.org/2000/svg" viewBox="0 0 300 300"><defs><style>.cls-1{fill:#ff6720;}</style></defs><path class="cls-1" d="M241.92,143.64a11.11,11.11,0,0,0-14.45-6.17,11,11,0,0,0-6.08,5.95,10.85,10.85,0,0,0-.71,2.37h-8.4c-3.23-7.48-9.77-12.93-18.47-15.38a43.09,43.09,0,0,0-1.92-9,2.23,2.23,0,0,0,.21-.95l0-6.22a3.56,3.56,0,0,1,3.42-3.67h14.26a10.26,10.26,0,0,0,10.07-10.41V97.88a11.12,11.12,0,1,0-4.55,0v2.21a5.71,5.71,0,0,1-5.52,5.86H195.5a8,8,0,0,0-7.79,6.47,34.55,34.55,0,0,0-16.42-13.69A33.07,33.07,0,0,0,156,96.21v-4a10.19,10.19,0,0,0,1.25-.4,11.12,11.12,0,1,0-14.46-6.17,11.19,11.19,0,0,0,8.33,6.79V97c-9.72,2.37-17.49,9.22-21.65,15a27.82,27.82,0,0,0-11.18-1.09V96.82a9.6,9.6,0,0,0-9.59-9.59h-8a11.11,11.11,0,1,0-.13,4.88h8.14a4.71,4.71,0,0,1,4.7,4.71v15.45a14.62,14.62,0,0,0-4.66,3.34,17.43,17.43,0,0,0-4.66,16.2c-3.61,2.26-11.52,7.84-14,14.8a31.88,31.88,0,0,0-1.42,5.32h-13a4.71,4.71,0,0,1-4.7-4.7v-8.14a11.14,11.14,0,1,0-4.88.12v8a9.6,9.6,0,0,0,9.58,9.59H88.18A25.53,25.53,0,0,0,94,173.44c5.94,7.05,16.11,8.77,18.6,9.08v.15l0,.53a4.68,4.68,0,0,1-4.7,4.65H88.08c-6.7,0-10.26,3.52-10.28,10.13l0,.37a11.14,11.14,0,1,0,4.89,0v-.24c0-4,1.32-5.33,5.4-5.33h19.84a9.59,9.59,0,0,0,9.58-9.66l0-.49c6.3,0,18.57,0,31.12.06v16.66a11.11,11.11,0,1,0,4.89.2V182.65c18.07,0,29.1,0,32.83-.1v14.18a9.6,9.6,0,0,0,9.59,9.58h8a11.09,11.09,0,1,0,.12-4.88h-8.13a4.71,4.71,0,0,1-4.7-4.7V182.08c5.8-.91,13.58-3.38,18.61-9.89,4.27-5.52,5.8-13.71,4-21.51h7a11.31,11.31,0,0,0,.4,1.24,11.11,11.11,0,1,0,20.63-8.28Zm-4.58,6.59a6.23,6.23,0,1,1,0-4.77A6.16,6.16,0,0,1,237.34,150.23Zm-80.51,60A6.24,6.24,0,1,1,150.6,204,6.24,6.24,0,0,1,156.83,210.24ZM150.77,75.69a6.23,6.23,0,1,1-3.46,8.1A6.23,6.23,0,0,1,150.77,75.69ZM109.38,132c-.12-.27-2.73-6.76,3-12.94,2-2.17,5-3.27,8.71-3.27a25.87,25.87,0,0,1,8.42,1.57,2.53,2.53,0,0,0,3.11-1,38.61,38.61,0,0,1,10-10c8.38-5.72,17.35-6.68,26.67-2.84,19.21,7.92,19.52,28.11,19.53,29a2.51,2.51,0,0,0,2,2.46c11,2.51,15.48,9.12,17.31,14.23,2.45,6.83,1.49,15.06-2.34,20-6.62,8.56-20.26,8.43-20.86,8.42H113.24c-.41,0-10.22-1.22-15.39-7.35-4.8-5.71-5.95-13.88-3.07-21.87,2.55-7.07,13.37-13.07,13.48-13.13A2.53,2.53,0,0,0,109.38,132ZM211.23,87a6.23,6.23,0,1,1,6.23,6.23A6.24,6.24,0,0,1,211.23,87ZM89.78,95.61A6.24,6.24,0,1,1,96,89.37,6.25,6.25,0,0,1,89.78,95.61ZM74.42,128.32a6.24,6.24,0,1,1-6.24-6.23A6.24,6.24,0,0,1,74.42,128.32Zm12.15,80.85a6.24,6.24,0,1,1-6.23-6.24A6.24,6.24,0,0,1,86.57,209.17Zm122-5a6.24,6.24,0,1,1,6.24,6.23A6.25,6.25,0,0,1,208.58,204.17Z"/></svg>