<svg id="Layer_1" data-name="Layer 1" xmlns="http://www.w3.org/2000/svg" viewBox="0 0 300 300"><defs><style>.cls-1{fill:#ff6720;}</style></defs><path class="cls-1" d="M103.09,176H90a5.64,5.64,0,0,0-5.63,5.63v37.71A5.64,5.64,0,0,0,90,225h13.13a5.64,5.64,0,0,0,5.63-5.63V181.66A5.64,5.64,0,0,0,103.09,176Zm.79,43.34a.79.79,0,0,1-.79.79H90a.79.79,0,0,1-.79-.79V181.66a.79.79,0,0,1,.79-.79h13.13a.8.8,0,0,1,.79.79Z"/><path class="cls-1" d="M138.28,162.6H126.06a6.09,6.09,0,0,0-6.08,6.09v50.23a6.09,6.09,0,0,0,6.08,6.08h12.22a6.09,6.09,0,0,0,6.09-6.08V168.69A6.09,6.09,0,0,0,138.28,162.6Zm1.25,56.32a1.25,1.25,0,0,1-1.25,1.24H126.06a1.25,1.25,0,0,1-1.24-1.24V168.69a1.25,1.25,0,0,1,1.24-1.25h12.22a1.25,1.25,0,0,1,1.25,1.25Z"/><path class="cls-1" d="M173.43,145.65H162.22a6.6,6.6,0,0,0-6.59,6.59v66.17a6.6,6.6,0,0,0,6.59,6.59h11.21a6.6,6.6,0,0,0,6.59-6.59V152.24A6.6,6.6,0,0,0,173.43,145.65Zm1.75,72.76a1.75,1.75,0,0,1-1.75,1.75H162.22a1.75,1.75,0,0,1-1.75-1.75V152.24a1.75,1.75,0,0,1,1.75-1.75h11.21a1.75,1.75,0,0,1,1.75,1.75Z"/><path class="cls-1" d="M208.43,120.39h-9.9a7.26,7.26,0,0,0-7.25,7.25v90.12a7.25,7.25,0,0,0,7.25,7.24h9.9a7.25,7.25,0,0,0,7.24-7.24V127.64A7.25,7.25,0,0,0,208.43,120.39Zm2.4,97.37a2.4,2.4,0,0,1-2.4,2.4h-9.9a2.41,2.41,0,0,1-2.41-2.4V127.64a2.41,2.41,0,0,1,2.41-2.41h9.9a2.4,2.4,0,0,1,2.4,2.41Z"/><path class="cls-1" d="M204.44,75a11.06,11.06,0,0,0-7.88,18.83l-20.62,22.74-23.59-7.74a8.88,8.88,0,1,0-15,6.57l-8.42,29.8-19.07-16a2.42,2.42,0,0,0-3.22.1l-9.27,8.79a9.14,9.14,0,1,0,3.75,3.11l7.28-6.9,20.28,17.05a2.42,2.42,0,0,0,1.56.57,2.56,2.56,0,0,0,.71-.11,2.4,2.4,0,0,0,1.61-1.65l9.16-32.41a8.74,8.74,0,0,0,1.78.18,8.86,8.86,0,0,0,7.63-4.37l24.81,8.13a2.42,2.42,0,0,0,2.55-.67l22.22-24.51a10.84,10.84,0,0,0,3.75.67,11.07,11.07,0,0,0,0-22.14ZM93.62,150.65a4.29,4.29,0,1,1,4.28-4.28A4.29,4.29,0,0,1,93.62,150.65Zm49.86-37.6a4,4,0,1,1,4-4A4,4,0,0,1,143.48,113.05Zm61-20.75a6.23,6.23,0,1,1,6.23-6.23A6.25,6.25,0,0,1,204.44,92.3Z"/></svg>