<svg id="Layer_1" data-name="Layer 1" xmlns="http://www.w3.org/2000/svg" viewBox="0 0 300 300"><defs><style>.cls-1{fill:#ff6720;}</style></defs><path class="cls-1" d="M211.31,173.37c-.08-2-1-5.56-3.69-12.39-2.3-5.74-7.29-10-14.05-12.15-7.93-2.46-17.06-1.37-23.28,2.77-11.27,7.52-11.4,20.06-11.4,20.59v21.36c0,5.77-3.37,14.15-7.67,19.06l-.11.14c-1.33,1.73-16.33,10.39-28.3,1.57-11.79-8.69-11.26-20.66-11.23-21.16V132.05a2.35,2.35,0,0,0,.22-1c0-.13.12-12.63,10.58-18.73a1.12,1.12,0,0,0,.22-.16h0a2.46,2.46,0,0,0,.53-.06c9-2,15.34-6.12,19-12.28,5.51-9.32,2.56-19.76,2.43-20.2a2.42,2.42,0,0,0-2.66-1.72c-9,1.29-15.49,4.93-19.23,10.82-4.54,7.17-3.67,15.59-2.9,19.52a25.1,25.1,0,0,0-10.17,11.48,29.92,29.92,0,0,0-8.91-11.5c.64-3.07,1.76-11.4-2.73-19C94.34,83.09,88,79,79,77a2.43,2.43,0,0,0-2.84,1.65c-.15.5-3.66,12.23,2.37,21.74,3.52,5.54,9.47,9.1,17.69,10.57a2.91,2.91,0,0,0,.33.26c.43.27,10.61,6.92,10.19,18.94,0,.07,0,.13,0,.19v62.63c-.06,1.37-.37,15.27,13.2,25.27a24.88,24.88,0,0,0,15,4.88c9.61,0,18-4.92,19.93-7.35,5-5.78,8.82-15.3,8.82-22.19V172.19c0-.1.1-10.47,9.25-16.56,5.05-3.37,12.57-4.22,19.15-2.18,5.35,1.66,9.25,5,11,9.33,2.61,6.52,3.21,9.29,3.34,10.36a16.9,16.9,0,0,0-15.21,16.8,2.41,2.41,0,0,0,2.41,2.41h5.15v6.88a2.42,2.42,0,0,0,4.84,0v-6.88h8.93v6.88a2.42,2.42,0,0,0,4.84,0v-6.88h5.16a2.41,2.41,0,0,0,2.42-2.41A16.9,16.9,0,0,0,211.31,173.37ZM126.8,91.3c2.64-4.15,7.2-6.91,13.56-8.21.45,3.09.74,9-2.4,14.32-2.63,4.41-7.17,7.56-13.51,9.39C123.86,103.38,123.34,96.72,126.8,91.3ZM82.63,97.78c-3.46-5.42-2.94-12.08-2.35-15.5,6.35,1.82,10.88,5,13.51,9.39C96.93,97,96.64,102.9,96.19,106,89.83,104.69,85.27,101.93,82.63,97.78Zm113.7,89.74a12,12,0,0,1,23.59,0Z"/></svg>