<svg id="Layer_1" data-name="Layer 1" xmlns="http://www.w3.org/2000/svg" viewBox="0 0 300 300"><defs><style>.cls-1{fill:#ff6720;}</style></defs><path class="cls-1" d="M166.74,136.07,144.2,157.35l-10.81-11.12a3.12,3.12,0,0,0-4.48,4.34l13,13.32a3.18,3.18,0,0,0,4.41.09l24.79-23.38a3.13,3.13,0,0,0,.12-4.41A3.19,3.19,0,0,0,166.74,136.07Z"/><path class="cls-1" d="M150,103.31a46.7,46.7,0,1,0,46.7,46.7A46.75,46.75,0,0,0,150,103.31Zm0,87.15A40.45,40.45,0,1,1,190.47,150,40.49,40.49,0,0,1,150,190.46Z"/><path class="cls-1" d="M214.29,132.81l1-18.53a3.12,3.12,0,0,0-1.72-3L197.09,103l-8.34-16.5a3.17,3.17,0,0,0-3-1.72l-18.57,1L151.73,75.52a3.1,3.1,0,0,0-3.43,0L132.82,85.74l-18.53-1a3.09,3.09,0,0,0-3,1.72L103,102.93l-16.5,8.35a3.16,3.16,0,0,0-1.72,3l1,18.53L75.55,148.26a3.16,3.16,0,0,0,0,3.44l10.2,15.5-1,18.54a3.14,3.14,0,0,0,1.72,3l16.51,8.34,8.35,16.51a3.14,3.14,0,0,0,3,1.72l18.54-1,15.48,10.22a3,3,0,0,0,3.43,0l15.48-10.22,18.53,1a3.12,3.12,0,0,0,3-1.72L197,197.05l16.51-8.34a3.2,3.2,0,0,0,1.72-3l-1-18.54,10.23-15.47a3.16,3.16,0,0,0,0-3.44Zm-5.82,31.83a2.92,2.92,0,0,0-.5,1.9l1,17.54L193.34,192a3.08,3.08,0,0,0-1.37,1.37l-7.88,15.6-17.54-1a3.43,3.43,0,0,0-1.9.5L150,218.12l-14.63-9.66a3.11,3.11,0,0,0-1.72-.53h-.16l-17.54,1-7.87-15.6a3.1,3.1,0,0,0-1.38-1.37l-15.63-7.85,1-17.54a3.43,3.43,0,0,0-.5-1.9L81.9,150l9.66-14.63a2.93,2.93,0,0,0,.5-1.91l-1-17.54,15.6-7.87a3.12,3.12,0,0,0,1.38-1.38l7.87-15.6,17.54,1a3.4,3.4,0,0,0,1.91-.5L150,81.89l14.63,9.66a2.91,2.91,0,0,0,1.9.5l17.54-1,7.88,15.6a3.05,3.05,0,0,0,1.37,1.38l15.6,7.87-1,17.54a3.46,3.46,0,0,0,.5,1.91L218.13,150Z"/></svg>