<svg id="Layer_1" data-name="Layer 1" xmlns="http://www.w3.org/2000/svg" viewBox="0 0 300 300"><defs><style>.cls-1{fill:#ff6720;}</style></defs><path class="cls-1" d="M205.77,180c-.24-1.55-1.33-2.79-3.26-3.68-5.84-2.69-13.6,2.28-20.42,7.49-5.81,4.44-16.31,12-18.46,13.57H147.74l-1.44-1.44h12.38c.21,0,5.11.07,8.11-2.88a7.73,7.73,0,0,0,2.28-5.75c0-5.14-2.68-8.44-8-9.79l-.38-.1a15.88,15.88,0,0,0-4-.17c-4.34,0-12.42.09-15.95-1.54-5.91-2.74-19.57-5.42-29,4C103,188.43,89,202.14,88.87,202.28a1.49,1.49,0,0,0,0,2.13l20.62,20.17a1.51,1.51,0,0,0,1.92.14l10.79-7.82,40.38-.38h.08c.28,0,6.78-.49,13.26-6.57,6.09-5.7,27.51-24.84,27.74-25S206.17,182.54,205.77,180Zm-4.11,2.73c-.21.19-21.67,19.35-27.78,25.08a20.77,20.77,0,0,1-11.38,5.76l-40.8.39a1.47,1.47,0,0,0-.86.28l-10.16,7.36L92,203.34c3.48-3.4,14.52-14.22,21.86-21.56,8.56-8.56,21.4-5.36,25.63-3.4s12.32,1.85,17.22,1.82c1.28,0,2.72,0,3.11,0a4.35,4.35,0,0,0,.51.14c2.83.73,5.72,2.12,5.72,6.91a4.83,4.83,0,0,1-1.37,3.62c-2.11,2.07-5.93,2-6,2h-16a1.49,1.49,0,0,0-1,2.54l4.42,4.41a1.49,1.49,0,0,0,1.05.44h17a1.5,1.5,0,0,0,.87-.28c.12-.09,12.43-8.93,18.92-13.9,5.31-4.06,12.89-9.22,17.36-7.16.66.31,1.47.8,1.57,1.43C203,181.21,202.09,182.31,201.66,182.7Z"/><path class="cls-1" d="M207.54,122.2c-4.71-10-17.13-23.16-20.69-26.83a4.22,4.22,0,0,0,.6-2.14,4.13,4.13,0,0,0-1.16-2.87l6.62-6.76a2.58,2.58,0,0,0,.67-2.26c-.22-1.16-1.18-2.09-2.92-2.84-3.27-1.4-6.38,0-8.65.93l-.89.38c-.46,0-1.71-1.23-2.38-1.89-1.46-1.43-3-2.92-4.8-2.92-2.12,0-3.92,1.88-5.37,3.38a14.35,14.35,0,0,1-1.33,1.3c-.33-.09-.9-.31-1.34-.49-2.29-.89-5.75-2.23-8.26-.56l-.2.14c-1.75,1.16-2.8,1.86-2.9,3.15a3.54,3.54,0,0,0,1.56,2.75L161.93,90a4.15,4.15,0,0,0-.9,5.34c-3.56,3.67-16,16.85-20.7,26.83a42.92,42.92,0,0,0-3.94,21c.66,8.46,4.17,15.31,10.16,19.8.24.18,5.81,4.31,12,4.31H189.3c6.21,0,11.79-4.13,12-4.31C215.13,152.63,212.61,132.92,207.54,122.2Zm-44.14-29a1.18,1.18,0,0,1,1.19-1.18h18.7a1.18,1.18,0,0,1,0,2.36h-18.7A1.18,1.18,0,0,1,163.4,93.23Zm-5.63-11.08c.34-.25.85-.59,1.32-.9l.2-.14c1.23-.82,3.92.23,5.53.86a8,8,0,0,0,2.55.73c1.2,0,2.15-1,3.35-2.26.94-1,2.37-2.46,3.22-2.46.6,0,1.88,1.24,2.72,2.07,1.61,1.58,3.44,3.37,5.51,2.54l1-.43c2-.85,4.21-1.82,6.3-.92a4.57,4.57,0,0,1,1,.56l-7.11,7.27H165.28c-1.37-1.27-5.66-5.23-7.18-6.61C158,82.34,157.86,82.24,157.77,82.15Zm41.77,78.45s-5,3.71-10.24,3.71H158.58c-5.21,0-10.19-3.67-10.24-3.71-6.68-5-8.57-12.36-9-17.65A39.83,39.83,0,0,1,143,123.47c4.57-9.67,17.27-23.07,20.37-26.26a4,4,0,0,0,1.2.18h18.7a3.94,3.94,0,0,0,1.19-.18c3.1,3.19,15.81,16.59,20.37,26.26A39.83,39.83,0,0,1,208.51,143C208.1,148.24,206.21,155.59,199.54,160.6Z"/><path class="cls-1" d="M177.72,132.18h-2v-6.71h5.43a1.49,1.49,0,0,0,0-3h-5.43v-4a1.49,1.49,0,1,0-3,0v4h-2a6.33,6.33,0,0,0,0,12.66h2v6.71H166a1.49,1.49,0,1,0,0,3h6.81v4a1.49,1.49,0,0,0,3,0v-4h2a6.33,6.33,0,1,0,0-12.65Zm-6.92,0a3.36,3.36,0,0,1,0-6.71h2v6.71Zm6.92,9.68h-2v-6.71h2a3.36,3.36,0,0,1,0,6.71Z"/></svg>