<svg id="Layer_1" data-name="Layer 1" xmlns="http://www.w3.org/2000/svg" viewBox="0 0 300 300"><defs><style>.cls-1{fill:#003057;}</style></defs><path class="cls-1" d="M206.44,151.77c-7.91-16.76-28.78-38.9-34.76-45.06a6.88,6.88,0,0,0,1-3.59,7,7,0,0,0-1.94-4.82l11.12-11.36A4.35,4.35,0,0,0,183,83.16c-.38-2-2-3.52-4.91-4.78-5.49-2.35-10.71-.09-14.53,1.55l-1.5.66c-.78,0-2.87-2.08-4-3.18-2.46-2.41-5-4.91-8.07-4.91-3.56,0-6.58,3.15-9,5.68a24.61,24.61,0,0,1-2.24,2.18c-.55-.15-1.51-.53-2.25-.82-3.84-1.49-9.65-3.75-13.87-.94l-.34.23c-2.93,2-4.7,3.13-4.86,5.29-.15,1.94,1.21,3.34,2.61,4.62,2,1.78,6.68,6.13,9.8,9a7,7,0,0,0-2.53,5.38,6.88,6.88,0,0,0,1,3.59c-6,6.16-26.85,28.3-34.76,45.06A72.07,72.07,0,0,0,86.94,187c1.1,14.21,7,25.71,17.07,33.26.39.3,9.76,7.23,20.19,7.23h51.6c10.43,0,19.8-6.93,20.19-7.23C219.18,202.88,215,169.78,206.44,151.77Zm-74.13-48.65a2,2,0,0,1,2-2h31.4a2,2,0,1,1,0,4H134.3A2,2,0,0,1,132.31,103.12Zm-9.46-18.61c.57-.43,1.42-1,2.21-1.52l.34-.23c2.06-1.37,6.58.39,9.29,1.44A13.19,13.19,0,0,0,139,85.43c2,0,3.61-1.67,5.63-3.79,1.58-1.65,4-4.14,5.4-4.14,1,0,3.16,2.09,4.57,3.48,2.71,2.65,5.78,5.66,9.26,4.27.54-.22,1.11-.47,1.71-.73,3.31-1.43,7.07-3,10.58-1.54a7.61,7.61,0,0,1,1.7.94L165.88,96.13H135.46C133.16,94,126,87.35,123.4,85,123.17,84.83,123,84.66,122.85,84.51ZM193,216.27c-.08.06-8.45,6.23-17.19,6.23H124.2c-8.74,0-17.11-6.17-17.19-6.23-11.22-8.41-14.39-20.77-15.08-29.65a66.83,66.83,0,0,1,6.15-32.71c7.66-16.24,29-38.75,34.21-44.11a6.7,6.7,0,0,0,2,.3h31.4a6.7,6.7,0,0,0,2-.3c5.2,5.36,26.55,27.87,34.21,44.11a66.83,66.83,0,0,1,6.15,32.71C207.38,195.5,204.21,207.86,193,216.27Z"/><path class="cls-1" d="M156.35,168.53H153V157.27h9.12a2.5,2.5,0,0,0,0-5H153v-6.79a2.5,2.5,0,0,0-5,0v6.79h-3.3a10.63,10.63,0,0,0,0,21.26H148v11.26H136.61a2.5,2.5,0,0,0,0,5H148v6.79a2.5,2.5,0,0,0,5,0v-6.79h3.31a10.63,10.63,0,0,0,0-21.26Zm-11.61,0a5.63,5.63,0,0,1,0-11.26H148v11.26Zm11.61,16.26H153V173.53h3.31a5.63,5.63,0,0,1,0,11.26Z"/></svg>