<svg id="Layer_1" data-name="Layer 1" xmlns="http://www.w3.org/2000/svg" viewBox="0 0 300 300"><defs><style>.cls-1{fill:#003057;}</style></defs><path class="cls-1" d="M156.43,83.57a72.55,72.55,0,0,1,10.85,2.78,2.54,2.54,0,0,0,.81.13,2.49,2.49,0,0,0,.8-4.86,77.74,77.74,0,0,0-11.6-3,2.5,2.5,0,0,0-.86,4.93Z"/><path class="cls-1" d="M177.59,90.77a72.61,72.61,0,0,1,9.5,5.93,2.5,2.5,0,1,0,3-4,79.24,79.24,0,0,0-10.16-6.34,2.5,2.5,0,0,0-2.31,4.44Z"/><path class="cls-1" d="M178.35,218.83a72.06,72.06,0,0,1-10.25,4.53,2.5,2.5,0,0,0,.83,4.86,2.73,2.73,0,0,0,.83-.14,78.67,78.67,0,0,0,11-4.84,2.5,2.5,0,0,0-2.36-4.41Z"/><path class="cls-1" d="M212.91,132.52a2.5,2.5,0,0,0,2.38,1.72,2.63,2.63,0,0,0,.77-.12,2.5,2.5,0,0,0,1.6-3.15,78.64,78.64,0,0,0-4.58-11.07,2.5,2.5,0,0,0-4.46,2.26A73.14,73.14,0,0,1,212.91,132.52Z"/><path class="cls-1" d="M218.55,163.64a2.51,2.51,0,0,0-2.85,2.11,71.87,71.87,0,0,1-2.52,10.91,2.51,2.51,0,0,0,1.64,3.14,2.78,2.78,0,0,0,.75.11,2.49,2.49,0,0,0,2.38-1.75,77.09,77.09,0,0,0,2.7-11.67A2.51,2.51,0,0,0,218.55,163.64Z"/><path class="cls-1" d="M212.35,185.93a2.5,2.5,0,0,0-3.34,1.13,72.92,72.92,0,0,1-5.72,9.65,2.5,2.5,0,1,0,4.09,2.87,77.14,77.14,0,0,0,6.11-10.3A2.5,2.5,0,0,0,212.35,185.93Z"/><path class="cls-1" d="M220.49,142.6a2.5,2.5,0,0,0-4.93.81,73.28,73.28,0,0,1,.94,11.16,2.51,2.51,0,0,0,2.5,2.49h0a2.5,2.5,0,0,0,2.48-2.52A78.42,78.42,0,0,0,220.49,142.6Z"/><path class="cls-1" d="M196.16,205.35a70.51,70.51,0,0,1-8.38,7.44,2.5,2.5,0,0,0,1.51,4.49,2.44,2.44,0,0,0,1.51-.51,77.65,77.65,0,0,0,9-7.94,2.5,2.5,0,0,0-3.6-3.48Z"/><path class="cls-1" d="M204.83,113.63a2.51,2.51,0,0,0,2-4,77.94,77.94,0,0,0-7.74-9.16,2.5,2.5,0,1,0-3.55,3.52,73.05,73.05,0,0,1,7.23,8.56A2.49,2.49,0,0,0,204.83,113.63Z"/><path class="cls-1" d="M157.23,226.27c-1.89.35-3.82.63-5.73.83h0a72.49,72.49,0,1,1-12-144.45h0c1.92-.13,3.87-.17,5.79-.14h0a2.5,2.5,0,0,0,0-5c-2.07,0-4.15,0-6.2.15h0A77.5,77.5,0,0,0,144,232.5a76.89,76.89,0,0,0,8-.42h0c2.05-.22,4.11-.52,6.14-.89a2.5,2.5,0,0,0-.92-4.92Z"/></svg>