<svg id="Layer_1" data-name="Layer 1" xmlns="http://www.w3.org/2000/svg" viewBox="0 0 300 300"><defs><style>.cls-1{fill:#ff6720;}</style></defs><path class="cls-1" d="M225,76.2H189a2.5,2.5,0,0,0,0,5h29.88l-37.78,35.73a2.51,2.51,0,0,0-.09,3.54,2.49,2.49,0,0,0,3.53.09l38-35.93v30.09a2.5,2.5,0,1,0,5,0v-36A2.49,2.49,0,0,0,225,76.2Z"/><path class="cls-1" d="M115.48,179.44l-38,35.93V185.28a2.5,2.5,0,1,0-5,0v36a2.49,2.49,0,0,0,2.5,2.5h36a2.5,2.5,0,0,0,0-5H81.14l37.78-35.73a2.5,2.5,0,0,0-3.44-3.63Z"/><path class="cls-1" d="M221.3,186.48a2.5,2.5,0,0,0-2.5,2.5v29.88l-35.73-37.78a2.5,2.5,0,0,0-3.63,3.44l35.93,38H185.28a2.5,2.5,0,1,0,0,5h36a2.49,2.49,0,0,0,2.5-2.5V189A2.49,2.49,0,0,0,221.3,186.48Z"/><path class="cls-1" d="M84.63,77.5h30.09a2.5,2.5,0,0,0,0-5h-36A2.49,2.49,0,0,0,76.2,75v36a2.5,2.5,0,0,0,5,0V81.14l35.73,37.78a2.5,2.5,0,0,0,3.63-3.44Z"/><path class="cls-1" d="M158.11,123.16H141.89a18.75,18.75,0,0,0-18.73,18.73v16.22a18.75,18.75,0,0,0,18.73,18.73h16.22a18.75,18.75,0,0,0,18.73-18.73V141.89A18.75,18.75,0,0,0,158.11,123.16Zm13.73,35a13.75,13.75,0,0,1-13.73,13.73H141.89a13.75,13.75,0,0,1-13.73-13.73V141.89a13.75,13.75,0,0,1,13.73-13.73h16.22a13.75,13.75,0,0,1,13.73,13.73Z"/></svg>