<svg id="Layer_1" data-name="Layer 1" xmlns="http://www.w3.org/2000/svg" viewBox="0 0 300 300"><defs><style>.cls-1{fill:#fff;}</style></defs><path class="cls-1" d="M211.25,177.88c-.25-1.63-1.4-2.93-3.42-3.86-6.11-2.82-14.23,2.38-21.37,7.84-6.08,4.65-17.07,12.58-19.32,14.2H150.5l-1.5-1.5h13c.22,0,5.34.07,8.49-3a8.09,8.09,0,0,0,2.38-6c0-5.38-2.8-8.83-8.33-10.25l-.4-.1c-.56-.19-1.45-.2-4.18-.18-4.54,0-13,.09-16.69-1.61-6.19-2.86-20.49-5.67-30.35,4.18-9.16,9.17-23.84,23.52-24,23.66a1.56,1.56,0,0,0,0,2.23l21.58,21.11a1.6,1.6,0,0,0,1.1.44,1.57,1.57,0,0,0,.91-.3l11.3-8.18,42.26-.4h.08c.29,0,7.1-.51,13.88-6.87,6.37-6,28.8-26,29-26.21S211.66,180.56,211.25,177.88Zm-4.3,2.85c-.23.2-22.68,20.25-29.08,26.24-5.71,5.36-11.46,6-11.91,6l-42.71.4a1.54,1.54,0,0,0-.9.3l-10.64,7.7-19.5-19.08c3.64-3.56,15.19-14.88,22.88-22.57,9-8.95,22.4-5.6,26.83-3.55s12.89,1.93,18,1.9c1.34,0,2.85,0,3.25,0l.54.14c3,.76,6,2.21,6,7.23a5.07,5.07,0,0,1-1.43,3.79c-2.21,2.17-6.21,2.13-6.29,2.13H145.24a1.56,1.56,0,0,0-1.11,2.66l4.63,4.62a1.53,1.53,0,0,0,1.1.46h17.78a1.54,1.54,0,0,0,.91-.29c.13-.1,13-9.35,19.81-14.55,5.55-4.25,13.48-9.65,18.16-7.49.69.32,1.54.84,1.65,1.49C208.3,179.17,207.39,180.31,207,180.73Z"/><path class="cls-1" d="M192.82,95.25l-13.28,13.28-3.76-3.76a1.7,1.7,0,0,0-1.18-.5h0a1.64,1.64,0,0,0-1.11,2.81l4.92,4.9a1.59,1.59,0,0,0,1.15.48h0a1.64,1.64,0,0,0,1.15-.47l14.44-14.43a1.65,1.65,0,0,0,0-2.35A1.63,1.63,0,0,0,192.82,95.25Z"/><path class="cls-1" d="M210.85,97.08a27.88,27.88,0,0,0-26.23-22A27.48,27.48,0,0,0,164,82.81a28.23,28.23,0,0,0-6.59,31.3,29.47,29.47,0,0,0,6.6,9.59,20.53,20.53,0,0,1,5.68,10.6,29,29,0,0,1,.4,6v1.05a8.19,8.19,0,0,0,8.51,8.49h4.79l.23,0H185c1.23,0,2.5,0,3.77,0a8.09,8.09,0,0,0,7.74-6.9,25.43,25.43,0,0,0,.14-3.57v-.91a20.57,20.57,0,0,1,6.65-15.32C210.44,115.79,213,107.05,210.85,97.08Zm-10,23.6a24,24,0,0,0-7.61,17.69v.95a20.64,20.64,0,0,1-.12,3.09,4.64,4.64,0,0,1-4.45,4c-1.2,0-2.44,0-3.64,0h-1.69l-.23,0h-4.55a4.81,4.81,0,0,1-5.11-5.09v-1a32.26,32.26,0,0,0-.47-6.66,24,24,0,0,0-6.62-12.32,26.12,26.12,0,0,1-5.86-8.5A24.76,24.76,0,0,1,166.3,85.3a24.17,24.17,0,0,1,17.08-6.88c.36,0,.73,0,1.1,0a24.79,24.79,0,0,1,23,19.35A23.9,23.9,0,0,1,200.87,120.68Z"/><path class="cls-1" d="M194,153H172.74a1.46,1.46,0,0,0,0,2.92H194a1.46,1.46,0,0,0,0-2.92Z"/><path class="cls-1" d="M192.38,158.77h-18a1.46,1.46,0,1,0,0,2.92h18a1.46,1.46,0,1,0,0-2.92Z"/><path class="cls-1" d="M188.56,164.51H178.18a1.46,1.46,0,1,0,0,2.91h10.38a1.46,1.46,0,1,0,0-2.91Z"/></svg>