<svg id="Layer_1" data-name="Layer 1" xmlns="http://www.w3.org/2000/svg" viewBox="0 0 300 300"><defs><style>.cls-1{fill:#003057;}</style></defs><path class="cls-1" d="M194,110.84a44.66,44.66,0,0,0-42-35.3c-.69,0-1.37,0-2,0A43.89,43.89,0,0,0,118.9,88a45.16,45.16,0,0,0-10.55,50.09,47.24,47.24,0,0,0,10.58,15.38,33.79,33.79,0,0,1,9.34,17.39,47.86,47.86,0,0,1,.65,9.73v1.73c0,7.75,5.5,13.2,13.27,13.24H150l.3,0h2.39c2,0,4.05,0,6.07,0a12.61,12.61,0,0,0,12.05-10.74,40.74,40.74,0,0,0,.23-5.7c0-.51,0-1,0-1.5a35.13,35.13,0,0,1,1.13-9c1.52-5.78,4.62-10.92,9.76-16.17C193.3,140.8,197.36,126.8,194,110.84Zm-15.3,38.45c-5.63,5.76-9.2,11.71-10.91,18.19a40.85,40.85,0,0,0-1.28,10.1c0,.51,0,1,0,1.53a36.43,36.43,0,0,1-.2,5.07A8,8,0,0,1,158.6,191c-1.94.05-3.94,0-5.87,0H150l-.31,0h-7.44c-5.3,0-8.74-3.46-8.77-8.74v-1.67A51.83,51.83,0,0,0,132.7,170a38.21,38.21,0,0,0-10.58-19.68,43,43,0,0,1-9.6-13.92,40.62,40.62,0,0,1,9.49-45A39.7,39.7,0,0,1,151.8,80.06a40.65,40.65,0,0,1,37.74,31.73C192.6,126.17,188.94,138.79,178.67,149.29Z"/><path class="cls-1" d="M167.17,201.42H132.78a2.26,2.26,0,1,0,0,4.52h34.39a2.26,2.26,0,0,0,0-4.52Z"/><path class="cls-1" d="M164.56,210.69H135.39a2.27,2.27,0,1,0,0,4.53h29.17a2.27,2.27,0,0,0,0-4.53Z"/><path class="cls-1" d="M158.38,220H141.57a2.27,2.27,0,0,0,0,4.53h16.81a2.27,2.27,0,0,0,0-4.53Z"/><path class="cls-1" d="M153.81,111.89a9.27,9.27,0,0,0-3.42-.65,9.49,9.49,0,0,0-3.76.78,9.38,9.38,0,1,0,7.18-.13Zm1.09,10.52h0a4.86,4.86,0,0,1-4.53,3.07,4.78,4.78,0,0,1-1.77-.33,4.86,4.86,0,0,1,1.78-9.38,4.93,4.93,0,0,1,1.78.33A4.87,4.87,0,0,1,154.9,122.41Z"/><path class="cls-1" d="M172.83,121.92l-.36-.14a1.64,1.64,0,0,1-1-1.08l0-.1v-.11a2.68,2.68,0,0,0,0-.4,1.63,1.63,0,0,1,.94-1.56l.19-.08a7,7,0,0,0,3.65-9.21,7,7,0,0,0-9.25-3.66l-.15.07a1.65,1.65,0,0,1-1.84-.38,1.63,1.63,0,0,1-.38-1.76l.07-.2a7,7,0,1,0-13-5.14l-.15.37a1.67,1.67,0,0,1-1.08,1l-.1,0-.1,0a2.82,2.82,0,0,0-.41,0,1.59,1.59,0,0,1-1.56-1l-.07-.16A7,7,0,1,0,135.33,104l.07.16A1.64,1.64,0,0,1,135,106l-.09.1a1.65,1.65,0,0,1-1.75.48l-.21-.08a7,7,0,0,0-9.09,4,7,7,0,0,0,3.95,9.09l.37.15a1.68,1.68,0,0,1,.09,3.08l-.29.12A7,7,0,0,0,124.5,132a7,7,0,0,0,9.22,3.63l.17-.07a1.66,1.66,0,0,1,1.82.36l.1.1a1.62,1.62,0,0,1,.48,1.74l-.08.21a7,7,0,0,0,3.95,9.1,7,7,0,0,0,9.1-4l.14-.37a1.66,1.66,0,0,1,1.52-1,1.62,1.62,0,0,1,1.56.95l.08.19a7,7,0,0,0,9.23,3.63h0a7,7,0,0,0,3.71-3.86,6.92,6.92,0,0,0-.1-5.36l-.07-.16a1.69,1.69,0,0,1,2.14-2.23l.21.08a7,7,0,1,0,5.13-13Zm-.25,7.44a2.5,2.5,0,0,1-3.22,1.41l-.22-.09a6.22,6.22,0,0,0-7.95,8.23l.08.17a2.48,2.48,0,0,1,0,1.91,2.53,2.53,0,0,1-1.32,1.37,2.51,2.51,0,0,1-3.28-1.28l-.09-.22a6.21,6.21,0,0,0-11.43.26l-.15.37a2.5,2.5,0,0,1-2.31,1.58,2.38,2.38,0,0,1-.91-.18,2.48,2.48,0,0,1-1.4-3.22l.1-.26a6.37,6.37,0,0,0-8.41-8l-.19.08a2.49,2.49,0,0,1-3.27-1.29,2.5,2.5,0,0,1,1.28-3.27l.21-.09a6.14,6.14,0,0,0,3.65-5.87,6.2,6.2,0,0,0-3.9-5.56l-.38-.15a2.49,2.49,0,0,1-1.4-3.22,2.48,2.48,0,0,1,3.23-1.4l.25.1a6.37,6.37,0,0,0,8-8.42l-.08-.18a2.53,2.53,0,0,1,0-1.91,2.45,2.45,0,0,1,1.32-1.36,2.49,2.49,0,0,1,3.27,1.26l.1.23A6.14,6.14,0,0,0,149.5,104a2.64,2.64,0,0,0,.67.07,6.2,6.2,0,0,0,5.57-3.91l.15-.37a2.49,2.49,0,0,1,3.22-1.4,2.48,2.48,0,0,1,1.4,3.22l-.08.21a6.22,6.22,0,0,0,8.23,8l.18-.08A2.48,2.48,0,0,1,172.1,111a2.42,2.42,0,0,1,0,1.92,2.45,2.45,0,0,1-1.31,1.37l-.22.1a6.13,6.13,0,0,0-3.64,5.36,2.56,2.56,0,0,0-.07.68,6.18,6.18,0,0,0,3.9,5.56l.37.14A2.5,2.5,0,0,1,172.58,129.36Z"/></svg>