<svg id="Layer_1" data-name="Layer 1" xmlns="http://www.w3.org/2000/svg" viewBox="0 0 300 300"><defs><style>.cls-1{fill:#003057;}</style></defs><path class="cls-1" d="M196.88,75H103.12A15.64,15.64,0,0,0,87.5,90.62V209.38A15.64,15.64,0,0,0,103.12,225h93.76a15.64,15.64,0,0,0,15.62-15.62V90.62A15.64,15.64,0,0,0,196.88,75Zm9.37,134.38a9.39,9.39,0,0,1-9.37,9.37H103.12a9.39,9.39,0,0,1-9.37-9.37V90.62a9.39,9.39,0,0,1,9.37-9.37h93.76a9.39,9.39,0,0,1,9.37,9.37Z"/><path class="cls-1" d="M190.62,143.75h-12.5a3.13,3.13,0,0,0,0,6.25h12.5a3.13,3.13,0,1,0,0-6.25Z"/><path class="cls-1" d="M190.62,125h-12.5a3.13,3.13,0,0,0,0,6.25h12.5a3.13,3.13,0,1,0,0-6.25Z"/><path class="cls-1" d="M190.62,162.5h-12.5a3.13,3.13,0,0,0,0,6.25h12.5a3.13,3.13,0,1,0,0-6.25Z"/><path class="cls-1" d="M190.62,181.25h-12.5a3.13,3.13,0,0,0,0,6.25h12.5a3.13,3.13,0,1,0,0-6.25Z"/><path class="cls-1" d="M190.62,200H109.38a3.13,3.13,0,1,0,0,6.25h81.24a3.13,3.13,0,1,0,0-6.25Z"/><path class="cls-1" d="M115.4,178.35c.06.06.12.1.18.15a32.46,32.46,0,1,0-.33-.34C115.3,178.22,115.34,178.29,115.4,178.35Zm47.1-22.1A25,25,0,0,1,122.18,176l17.53-17.53a3.13,3.13,0,0,0,.91-2.21v-24.8A25,25,0,0,1,162.5,156.25Zm-28.12-24.8V155l-16.62,16.61a25,25,0,0,1,16.62-40.12Z"/></svg>