<svg id="Layer_1" data-name="Layer 1" xmlns="http://www.w3.org/2000/svg" viewBox="0 0 300 300"><defs><style>.cls-1{fill:#ff6720;}</style></defs><path class="cls-1" d="M171.47,219.85c9.13,2.68,21.1,4.15,33.71,4.15,13,0,25.38-1.61,34.73-4.53,13.48-4.16,16.3-9.68,16.3-13.57V159a4.23,4.23,0,0,0,0-.64s0-.08,0-.13c-.23-5.47-5.82-9.9-16.59-13.18-8.78-2.63-19.67-4.15-31.48-4.4a1,1,0,0,1-1-1V94.08a3.57,3.57,0,0,0-.49-1.65.74.74,0,0,1-.12-.29c-1.11-4.8-6.66-8.74-16.49-11.7C180.54,77.58,168.08,76,154.93,76s-25.43,1.58-34.73,4.44C112.76,82.74,103.9,87,103.9,94A7.3,7.3,0,0,0,104,95.2s0,.1,0,.15l.47,19.49a1,1,0,0,1-.36.78,1,1,0,0,1-.64.24l-.19,0a51,51,0,0,0-9.45-.89,50.13,50.13,0,1,0,31.65,89,1,1,0,0,1,.63-.23.91.91,0,0,1,.23,0,125.72,125.72,0,0,0,27.12,3,1,1,0,0,1,1,.82C155.64,213.94,164.36,217.76,171.47,219.85ZM238,213.27c-8.75,2.73-20.4,4.23-32.81,4.23s-24.05-1.46-32.72-4.1c-9.16-2.83-11.6-5.88-11.6-7.24v-.09l-.22-12.37a1,1,0,0,1,.47-.86,1,1,0,0,1,.53-.16,1,1,0,0,1,.44.11,55.36,55.36,0,0,0,10.45,3.81,130.31,130.31,0,0,0,31.84,3.65c13.13,0,25.56-1.58,35-4.45a53.48,53.48,0,0,0,8.81-3.56,1,1,0,0,1,.45-.11,1,1,0,0,1,1,1v12.54a.86.86,0,0,1,0,.28C249.71,207.21,247.27,210.38,238,213.27Zm11.72-32.4a1,1,0,0,1-.07.38,4.43,4.43,0,0,1-.13.55,3,3,0,0,0-.1.48c0,1.25-2.49,4.39-11.94,7.28-8.84,2.67-20.58,4.14-33.06,4.14-23.25,0-39.87-5.08-43.72-9.86a1,1,0,0,1-.22-.61l0-3.59-.17-9.82a1,1,0,0,1,.47-.86.92.92,0,0,1,.53-.16,1,1,0,0,1,.45.11,51.92,51.92,0,0,0,9.13,3.52c9.13,2.65,21.06,4.1,33.61,4.1,12.92,0,25.22-1.53,34.62-4.31a48.69,48.69,0,0,0,9.19-3.61,1,1,0,0,1,.45-.11,1,1,0,0,1,.52.15,1,1,0,0,1,.48.85Zm-46-33.52h.72c12.52,0,24.61,1.5,33.19,4.11,9.27,2.78,11.9,5.76,12,7.08v.18c-.09,1.28-2.79,4.45-12.38,7.3-8.79,2.61-20.42,4.06-32.75,4.06-11.84,0-23.12-1.37-31.77-3.85-8.36-2.41-12-5.29-12.61-7.07l0-.1a1,1,0,0,1-.11-.45,1.33,1.33,0,0,1,.12-.55c.65-1.77,4.41-4.65,12.92-7C181.38,148.66,192.29,147.35,203.77,147.35Zm-3.15-42.61v11.19a1,1,0,0,1-.21.62c-.21.26-.22.48-.22,1v.14c0,1.25-2.52,4.39-12,7.28-8.85,2.66-20.95,4.19-33.18,4.19a123.05,123.05,0,0,1-29.34-3.24l-.07,0h0l-.3-.07a1.11,1.11,0,0,1-.3-.17,48.32,48.32,0,0,0-13.1-7.41,1,1,0,0,1-.65-.91l-.3-12a1,1,0,0,1,.47-.87,1,1,0,0,1,.53-.15.91.91,0,0,1,.45.11,47,47,0,0,0,9,3.47c9.13,2.65,21.07,4.11,33.62,4.11,13.14,0,25.6-1.58,35.08-4.44a50.56,50.56,0,0,0,9.1-3.65,1,1,0,0,1,.46-.11,1,1,0,0,1,.52.14A1,1,0,0,1,200.62,104.74Zm-78.45-18c8.8-2.7,20.44-4.18,32.76-4.18s24.48,1.52,33.19,4.18c9.52,2.9,12,6,12,7.24s-2.52,4.42-12.07,7.28c-8.77,2.64-20.85,4.15-33.15,4.15-11.88,0-23.17-1.38-31.76-3.89s-12.07-5.31-12.62-7.09a1,1,0,0,1-.11-.5C110.54,92.18,113.67,89.35,122.17,86.77Zm1.1,110.56a43.58,43.58,0,1,1-29.34-75.78,44.73,44.73,0,0,1,12.89,1.92,43.77,43.77,0,0,1,29.83,32.84,45.71,45.71,0,0,1,.87,8.79A43.46,43.46,0,0,1,123.27,197.33ZM153.93,200a1,1,0,0,1-.7.29h0a135.09,135.09,0,0,1-19.93-1.76,1,1,0,0,1-.77-.64,1,1,0,0,1,.16-1,50.46,50.46,0,0,0,8-13.79,1,1,0,0,1,.94-.64h.08c4,.33,7.72.51,11.25.55a1,1,0,0,1,1,1v.77l.26,14.46A1,1,0,0,1,153.93,200Zm-10.08-39.9a1,1,0,0,1,.29-.78,1,1,0,0,1,.71-.29h.07c2.21.15,4.72.25,7.68.3a1,1,0,0,1,1,1l.26,15.12a1,1,0,0,1-1,1h0c-3,0-6-.17-8.82-.39a1,1,0,0,1-.91-1.18,51.53,51.53,0,0,0,1-9.81C144.07,163.59,144,162,143.85,160.09Zm12.25-7.6a1,1,0,0,1-.74.33h-.43c-3.75,0-7.73-.15-11.81-.43a1,1,0,0,1-.9-.73,49.5,49.5,0,0,0-7.49-15.58,1,1,0,0,1,0-1.09,1,1,0,0,1,.86-.49h.12a153.06,153.06,0,0,0,19.23,1.23c13.17,0,25.65-1.57,35.13-4.44a52.47,52.47,0,0,0,9.06-3.61,1.07,1.07,0,0,1,.46-.11,1,1,0,0,1,.52.15,1,1,0,0,1,.48.85v11.2a1,1,0,0,1-1,1C183.3,141.22,163.34,144.54,156.1,152.49Z"/><path class="cls-1" d="M99.18,164.13H95.94v-11h8.93a2.45,2.45,0,0,0,0-4.9H95.94v-6.65a2.45,2.45,0,0,0-4.9,0v6.65H87.81a10.41,10.41,0,0,0,0,20.82H91v11H79.84a2.45,2.45,0,0,0,0,4.89H91v6.65a2.45,2.45,0,0,0,4.9,0V185h3.24a10.41,10.41,0,0,0,0-20.82Zm-11.37,0a5.51,5.51,0,1,1,0-11H91v11Zm11.37,15.93H95.94V169h3.24a5.52,5.52,0,0,1,0,11Z"/></svg>