<svg id="Layer_1" data-name="Layer 1" xmlns="http://www.w3.org/2000/svg" viewBox="0 0 300 300"><defs><style>.cls-1{fill:#007c00;}</style></defs><path class="cls-1" d="M228.77,165.28c-.32-2.09-1.8-3.75-4.38-4.95-7.84-3.61-18.26,3.06-27.42,10.06-7.8,6-21.91,16.15-24.8,18.23H150.83l-1.93-1.93h16.63c.28,0,6.85.09,10.89-3.87a10.4,10.4,0,0,0,3.06-7.73c0-6.91-3.6-11.33-10.69-13.15l-.52-.14c-.72-.24-1.86-.24-5.37-.22-5.82,0-16.68.12-21.41-2.07-7.94-3.67-26.29-7.28-38.94,5.37C90.79,176.64,72,195.05,71.77,195.24a2,2,0,0,0-.6,1.43,2,2,0,0,0,.6,1.43l27.69,27.08a2,2,0,0,0,1.4.57,2,2,0,0,0,1.17-.38l14.5-10.5,54.23-.51h.11c.37,0,9.1-.66,17.81-8.82,8.17-7.66,36.95-33.36,37.25-33.63S229.3,168.73,228.77,165.28Zm-5.52,3.66c-.29.26-29.1,26-37.31,33.68-7.32,6.87-14.7,7.69-15.28,7.74l-54.8.52a2,2,0,0,0-1.16.38l-13.65,9.88L76,196.67c4.67-4.58,19.49-19.1,29.35-29,11.49-11.49,28.75-7.19,34.43-4.56s16.54,2.48,23.12,2.44c1.72,0,3.66,0,4.17,0l.69.19c3.8,1,7.69,2.83,7.69,9.27a6.46,6.46,0,0,1-1.85,4.86c-2.83,2.78-8,2.73-8.06,2.74h-21.5a2,2,0,0,0-1.42,3.41l5.94,5.93a2,2,0,0,0,1.41.59h22.82a1.94,1.94,0,0,0,1.16-.38c.17-.12,16.69-12,25.42-18.67,7.13-5.45,17.3-12.38,23.31-9.61.89.41,2,1.08,2.11,1.92C225,166.94,223.82,168.41,223.25,168.94Z"/><path class="cls-1" d="M133.54,148.74a20.21,20.21,0,0,0,5,.67c6.08,0,10.71-3.33,13.82-9.94v0l0-.05c2.38-5.11,2.5-9.93.33-13.59-2.44-4.11-7.38-6.41-14.69-6.84-9.54-.58-13.23,3.67-15.92,6.76a8.81,8.81,0,0,1-2.94,2.61,3.59,3.59,0,0,0-2.23,2.34,3.51,3.51,0,0,0,.51,3.13C121.84,139.87,128.19,147.39,133.54,148.74Zm-8.42-20.39c2.51-2.87,5.09-5.84,12.67-5.4,5.82.35,9.79,2,11.49,4.89a8.73,8.73,0,0,1,.65,6.53,7.45,7.45,0,0,0-.67-.53c-3.86-2.66-10.13-3.22-18.62-1.65a2,2,0,0,0,.72,3.94c12.74-2.35,16.16,1.06,17,2.41-3.06,5.92-7.47,7.94-13.83,6.33-3.11-.79-8.14-5.63-13.51-13A12.49,12.49,0,0,0,125.12,128.35Z"/><path class="cls-1" d="M157.18,114.63c-.73,7.27-2,20.07-2.77,26.77s-.22,10.72,1.81,13a6.75,6.75,0,0,0,5.28,2.11c5.21,0,7-3,8.46-5.46.28-.47.57-.95.88-1.43a31.18,31.18,0,0,1,5.21-5.19c1.47,2,4.14,4.8,7.75,5.83a10.46,10.46,0,0,0,8.22-1.09c7.18-4,11.91-12.42,13.61-15.85a4,4,0,0,0-1.37-5.1,49,49,0,0,1-7.11-5.71c-4.43-4.43-13.88-8-20.11-3.17-5.86,4.54-5.92,10.24-5.92,10.54a14.48,14.48,0,0,0,.57,3.63,56.76,56.76,0,0,0-5.1,4.37,103.68,103.68,0,0,1,2.27-18.14c4-.9,15.17-4.53,18-17a20.62,20.62,0,0,0,.44-9.27c-.41-2.72-1-6.45.29-17.1a2.83,2.83,0,0,0-1.31-2.73,2.76,2.76,0,0,0-3,0c-1.51,1-5.63,2.64-16.18,3.16a21.5,21.5,0,0,0-19.11,13c-2.93,6.48-2.75,13.8.44,17.8C152,112.06,155.13,113.9,157.18,114.63ZM151.65,91.4a17.67,17.67,0,0,1,15.66-10.62c7.17-.36,12.56-1.28,16.07-2.74-1,9.56-.44,13.25,0,16a16.72,16.72,0,0,1-.38,7.79C180.2,114,167.5,116,166.94,116a2,2,0,0,0-1.67,1.5,108.94,108.94,0,0,0-2.77,24c0,1.3,0,2.78,1.52,3.3s2.39-.5,4.19-2.79a46.38,46.38,0,0,1,6.81-6c3.41-.94,12.1-2.37,16.2,1a2,2,0,0,0,1.28.46,2,2,0,0,0,1.28-3.54c-5.33-4.44-14.52-3-18.4-2.17a10.6,10.6,0,0,1-.26-2c0-.16.13-4.05,4.37-7.34s11.46-.53,14.83,2.84a53.32,53.32,0,0,0,7.72,6.21c-1.53,3.09-5.77,10.67-12,14.12-6.75,3.77-11.62-4.77-11.82-5.13a2,2,0,0,0-3-.62c-.23.17-5.64,4.29-7.77,7.48-.36.54-.68,1.08-1,1.6-1.35,2.26-2.09,3.51-5,3.51a2.79,2.79,0,0,1-2.3-.77c-1.15-1.29-1.41-4.52-.82-9.89.76-6.82,2.09-19.93,2.81-27.15,0-.07,0-.15,0-.22v-.16a2.26,2.26,0,0,0,0-.26,23,23,0,0,1,1.36-7,32.86,32.86,0,0,1,11.18-15,2,2,0,1,0-2.48-3.14c-9.89,7.77-12.84,16.48-13.71,21.51a19.48,19.48,0,0,1-6-5.38C149.35,102.29,149.38,96.41,151.65,91.4Z"/></svg>