<svg id="Layer_1" data-name="Layer 1" xmlns="http://www.w3.org/2000/svg" viewBox="0 0 300 300"><defs><style>.cls-1{fill:#ff6720;}</style></defs><path class="cls-1" d="M96,186.17a11.27,11.27,0,1,1,11.27-11.26A11.28,11.28,0,0,1,96,186.17Zm0-17.53a6.27,6.27,0,1,0,6.27,6.27A6.27,6.27,0,0,0,96,168.64Z"/><path class="cls-1" d="M168,178.17a11.27,11.27,0,1,1,11.27-11.26A11.28,11.28,0,0,1,168,178.17Zm0-17.53a6.27,6.27,0,1,0,6.27,6.27A6.27,6.27,0,0,0,168,160.64Z"/><path class="cls-1" d="M204,189.17a11.27,11.27,0,1,1,11.27-11.26A11.28,11.28,0,0,1,204,189.17Zm0-17.53a6.27,6.27,0,1,0,6.27,6.27A6.27,6.27,0,0,0,204,171.64Z"/><path class="cls-1" d="M132,152.17a11.27,11.27,0,1,1,11.27-11.26A11.28,11.28,0,0,1,132,152.17Zm0-17.53a6.27,6.27,0,1,0,6.27,6.27A6.27,6.27,0,0,0,132,134.64Z"/><path class="cls-1" d="M95.8,160.14a14.81,14.81,0,0,1,2.5.23v-60a2.5,2.5,0,0,0-5,0v60A14.62,14.62,0,0,1,95.8,160.14Z"/><path class="cls-1" d="M95.8,189.27a14.62,14.62,0,0,1-2.5-.23v10.63a2.5,2.5,0,0,0,5,0V189A14.81,14.81,0,0,1,95.8,189.27Z"/><path class="cls-1" d="M168.05,180.89a14.62,14.62,0,0,1-2.5-.23v19a2.5,2.5,0,1,0,5,0v-19A14.81,14.81,0,0,1,168.05,180.89Z"/><path class="cls-1" d="M168.05,152.77a13.84,13.84,0,0,1,2.5.23V100.33a2.5,2.5,0,1,0-5,0V153A13.67,13.67,0,0,1,168.05,152.77Z"/><path class="cls-1" d="M204.17,192.45a14.81,14.81,0,0,1-2.5-.23v7.45a2.5,2.5,0,0,0,5,0v-7.45A14.62,14.62,0,0,1,204.17,192.45Z"/><path class="cls-1" d="M204.17,163.33a14.62,14.62,0,0,1,2.5.23V100.33a2.5,2.5,0,0,0-5,0v63.23A14.81,14.81,0,0,1,204.17,163.33Z"/><path class="cls-1" d="M131.92,126.14a14.62,14.62,0,0,1,2.5.23v-26a2.5,2.5,0,0,0-5,0v26A14.81,14.81,0,0,1,131.92,126.14Z"/><path class="cls-1" d="M131.92,155.27a14.81,14.81,0,0,1-2.5-.23v44.63a2.5,2.5,0,0,0,5,0V155A14.62,14.62,0,0,1,131.92,155.27Z"/></svg>