<svg id="Layer_1" data-name="Layer 1" xmlns="http://www.w3.org/2000/svg" viewBox="0 0 300 300"><defs><style>.cls-1{fill:#003057;}</style></defs><path class="cls-1" d="M223,96l-15.48-3.49L204,77a2.14,2.14,0,0,0-.93-1.32,2.09,2.09,0,0,0-1.6-.28,2,2,0,0,0-1,.57L182.68,93.76l-.25-.15a70.58,70.58,0,1,0,24,24l-.15-.25.21-.21L224,99.57A2.12,2.12,0,0,0,223,96Zm-10.64,58A66.45,66.45,0,0,1,146,220.4h0a66.36,66.36,0,0,1,0-132.72h0a66.55,66.55,0,0,1,33.21,8.92l.42.24-8.4,8.4-.15.19-.18.28-.3-.15A54.46,54.46,0,1,0,194.4,178.8a54.65,54.65,0,0,0,0-49.35l-.15-.29.27-.19a1.24,1.24,0,0,0,.22-.18l8.39-8.39.24.42A66.21,66.21,0,0,1,212.32,154.05Zm-67.92,1.5a2.12,2.12,0,0,0,1.48.64,2,2,0,0,0,1.51-.59l7.74-7.74.25.4A11.11,11.11,0,0,1,146,165.2h0a11.11,11.11,0,0,1,0-22.22h0a11.15,11.15,0,0,1,5.82,1.64l.41.25-7.68,7.69a2,2,0,0,0-.65,1.48A2.11,2.11,0,0,0,144.4,155.55Zm10.76-13.7-.26-.18a15.36,15.36,0,1,0,3.43,3.43l-.18-.26,13.1-13.11.27.31A33.81,33.81,0,0,1,146,187.9c-.86,0-1.71,0-2.58-.1A33.8,33.8,0,1,1,168,128.48l.31.27Zm16.1-16.09-.27-.24a38.06,38.06,0,1,0,3.49,3.49l-.24-.27,2.91-2.9,11.95,2.69.08.14a50.1,50.1,0,1,1-17.86-17.87l.14.08,2.7,12ZM192.6,125l-14.35-3.23L175,107.41l.15-.15,25.55-25.55,2.94,13a2.11,2.11,0,0,0,1.6,1.59l13,3Z"/></svg>