<svg id="Layer_1" data-name="Layer 1" xmlns="http://www.w3.org/2000/svg" viewBox="0 0 300 300"><defs><style>.cls-1{fill:#003057;}</style></defs><path class="cls-1" d="M122.8,104.3h26.38V127L148,125.75a2.42,2.42,0,0,0-3.32,0,2.35,2.35,0,0,0,0,3.33l5.21,5.21a2.34,2.34,0,0,0,1.67.69h.4a2.3,2.3,0,0,0,1.66-.69l5.22-5.21a2.37,2.37,0,0,0,0-3.33,2.43,2.43,0,0,0-3.33,0l-1.6,1.61V104.3h25.73A9.35,9.35,0,0,0,189,95V83.84a9.35,9.35,0,0,0-9.34-9.34H122.8a9.36,9.36,0,0,0-9.35,9.34V95A9.36,9.36,0,0,0,122.8,104.3ZM184.25,95a4.64,4.64,0,0,1-4.64,4.64H122.8A4.64,4.64,0,0,1,118.16,95V83.84a4.64,4.64,0,0,1,4.64-4.64h56.81a4.64,4.64,0,0,1,4.64,4.64Z"/><path class="cls-1" d="M130.65,195.7H73.84A9.35,9.35,0,0,0,64.49,205v11.12a9.35,9.35,0,0,0,9.35,9.34h56.81a9.35,9.35,0,0,0,9.34-9.34V205A9.35,9.35,0,0,0,130.65,195.7ZM69.19,205a4.65,4.65,0,0,1,4.65-4.64h56.81a4.64,4.64,0,0,1,4.64,4.64v11.12a4.64,4.64,0,0,1-4.64,4.64H73.84a4.65,4.65,0,0,1-4.65-4.64Z"/><path class="cls-1" d="M226.16,195.7H169.35A9.35,9.35,0,0,0,160,205v11.12a9.35,9.35,0,0,0,9.34,9.34h56.81a9.35,9.35,0,0,0,9.35-9.34V205A9.35,9.35,0,0,0,226.16,195.7Zm4.65,20.46a4.65,4.65,0,0,1-4.65,4.64H169.35a4.64,4.64,0,0,1-4.64-4.64V205a4.64,4.64,0,0,1,4.64-4.64h56.81a4.65,4.65,0,0,1,4.65,4.64Z"/><path class="cls-1" d="M170.23,159.06h20.7a4.33,4.33,0,0,1,4.33,4.33v21.76l-1.61-1.61a2.41,2.41,0,0,0-3.32,0,2.35,2.35,0,0,0,0,3.33l5.21,5.21a2.32,2.32,0,0,0,1.87.68h.2a2.33,2.33,0,0,0,1.66-.69l5.22-5.21a2.35,2.35,0,0,0-3.33-3.33l-1.2,1.21V163.39a9,9,0,0,0-9-9H170.39l-.26,0a9.39,9.39,0,0,0-2.43-4.19l-9.46-9.46a9.5,9.5,0,0,0-13.43,0l-9.46,9.46a9.4,9.4,0,0,0-2.42,4.17H109.24a9,9,0,0,0-9,9v21.36L99,183.54a2.41,2.41,0,0,0-3.32,0,2.35,2.35,0,0,0,0,3.33l5.21,5.21a2.26,2.26,0,0,0,1.86.68,2.24,2.24,0,0,0,1.87-.68l5.21-5.21a2.35,2.35,0,0,0,0-3.33,2.41,2.41,0,0,0-3.32,0l-1.6,1.61V163.39a4.33,4.33,0,0,1,4.32-4.33h23.58a9.34,9.34,0,0,0,2.53,4.56l9.46,9.46a9.52,9.52,0,0,0,13.43,0l9.46-9.46A9.43,9.43,0,0,0,170.23,159.06Zm-5.85,1.24-9.46,9.46a4.84,4.84,0,0,1-6.79,0l-9.46-9.46a4.81,4.81,0,0,1,0-6.79l9.46-9.46a4.82,4.82,0,0,1,6.79,0l9.46,9.46A4.81,4.81,0,0,1,164.38,160.3Z"/></svg>