<svg id="Layer_1" data-name="Layer 1" xmlns="http://www.w3.org/2000/svg" viewBox="0 0 300 300"><defs><style>.cls-1{fill:#003057;}</style></defs><path class="cls-1" d="M190.12,173.23h.51c3.19,0,19.82-.57,28.8-12.19,5.74-7.43,7.19-19.12,3.62-29.1s-11.64-17-22.85-20c-.58-6.61-4.2-28.52-26.61-37.76C148.94,64,130.47,80.93,124,90.11c-4.7-1.46-16.94-4.19-24.61,4a20.39,20.39,0,0,0-5.32,19.25c-4,2.48-13.87,9.21-16.9,17.62-4.12,11.4-2.39,23.17,4.63,31.5,7.93,9.42,22.27,10.72,22.41,10.72h6.36v25.36h-6.53a11.39,11.39,0,1,0,.12,4.84h7.46a3.78,3.78,0,0,0,3.78-3.78V173.23H131v25.06a11.51,11.51,0,1,0,4.84.26V173.23H164v25.06a11.51,11.51,0,1,0,4.84.26V173.23h14.87v26.42a3.78,3.78,0,0,0,3.78,3.78h7.46a11.47,11.47,0,1,0,.12-4.84h-6.53V173.23ZM92.89,207.84a6.59,6.59,0,1,1,6.68-6.59A6.64,6.64,0,0,1,92.89,207.84Zm46.62,1.73a6.69,6.69,0,1,1-6.69-6.59A6.65,6.65,0,0,1,139.51,209.57Zm32.93,0a6.69,6.69,0,1,1-6.69-6.59A6.65,6.65,0,0,1,172.44,209.57Zm33.77-14.91a6.59,6.59,0,1,1-6.69,6.59A6.65,6.65,0,0,1,206.21,194.66ZM104.33,168.4c-.73-.09-12.55-1.59-18.79-9-5.89-7-7.3-17-3.78-26.73,3.14-8.72,16.26-16,16.4-16a2.44,2.44,0,0,0,1.06-3.07c-.14-.35-3.42-8.44,3.75-16.12,3-3.17,7-4.1,10.85-4.1a31.51,31.51,0,0,1,10.3,1.92,2.42,2.42,0,0,0,3-1c.17-.27,17.3-26.93,44.66-15.65,23.37,9.63,23.72,34.16,23.73,35.19a2.42,2.42,0,0,0,1.88,2.36c13.41,3.06,18.89,11.16,21.14,17.41,3,8.35,1.8,18.43-2.9,24.5-8.23,10.65-25.18,10.32-25.41,10.31H104.33Z"/></svg>