<svg id="Layer_1" data-name="Layer 1" xmlns="http://www.w3.org/2000/svg" viewBox="0 0 300 300"><defs><style>.cls-1{fill:#003057;}</style></defs><path class="cls-1" d="M155.69,147.53h-3.24v-11h8.92a2.45,2.45,0,0,0,0-4.9h-8.92V125a2.45,2.45,0,1,0-4.9,0v6.65h-3.24a10.41,10.41,0,0,0,0,20.82h3.24v11h-11.2a2.45,2.45,0,1,0,0,4.9h11.2V175a2.45,2.45,0,0,0,4.9,0v-6.65h3.24a10.41,10.41,0,0,0,0-20.82Zm-11.38,0a5.52,5.52,0,0,1,0-11h3.24v11Zm11.38,15.92h-3.24v-11h3.24a5.52,5.52,0,0,1,0,11Z"/><path class="cls-1" d="M156,75.21v5.05a70.11,70.11,0,0,1,63.35,60.65h5.06A75.13,75.13,0,0,0,156,75.21Z"/><path class="cls-1" d="M225,150h-5a69.61,69.61,0,0,1-5.68,27.6,38.67,38.67,0,0,0,4.71,1.81A74.65,74.65,0,0,0,225,150Z"/><path class="cls-1" d="M210.86,184.46a70,70,0,0,1-127.77-55c-1.58-.36-3.32-.56-5-.82a75,75,0,0,0,137,58.64A30.73,30.73,0,0,0,210.86,184.46Z"/><path class="cls-1" d="M97.7,96.27c1.16,1.22,2.38,2.41,3.44,3.7A69.66,69.66,0,0,1,148,80V75A74.71,74.71,0,0,0,97.7,96.27Z"/><path class="cls-1" d="M92.67,101.7a75.16,75.16,0,0,0-12.31,20.5c1.5.75,3,1.49,4.52,2.17a70.1,70.1,0,0,1,11.68-19.49A25.89,25.89,0,0,1,92.67,101.7Z"/></svg>