<svg id="Layer_1" data-name="Layer 1" xmlns="http://www.w3.org/2000/svg" viewBox="0 0 300 300"><defs><style>.cls-1{fill:#003057;}</style></defs><path class="cls-1" d="M218.43,171a9,9,0,0,0-2.15.27l-19.06-36.56a9.07,9.07,0,1,0-11.77.48L177,151.28a9.05,9.05,0,0,0-2.34-.32,9.2,9.2,0,0,0-2.58.38l-7.58-16.69a9.07,9.07,0,1,0-10.83,1.28l-15.52,49.75a8.85,8.85,0,0,0-.89-.05,8.08,8.08,0,0,0-1.31.11l-23.69-73.68a9.08,9.08,0,1,0-11.52.43L81.93,155.54l-.36,0a9.11,9.11,0,1,0,5.13,1.6l18.66-42.79c.28,0,.56,0,.85,0a8.93,8.93,0,0,0,1.47-.13l23.66,73.58a9.07,9.07,0,1,0,11.43-.28l15.72-50.38A8.76,8.76,0,0,0,160,137l7.77,17.09a9.08,9.08,0,1,0,13.45-.22l8.84-16.74a7.5,7.5,0,0,0,1,.06,8.67,8.67,0,0,0,1.7-.17l19.17,36.77a9.07,9.07,0,1,0,6.5-2.75ZM85.65,164.6a4.13,4.13,0,1,1-1-2.69A4,4,0,0,1,85.65,164.6Zm17.19-57a4.07,4.07,0,1,1,7.44-2.3,4.36,4.36,0,0,1,0,.52,4.06,4.06,0,0,1-7.39,1.78Zm38.46,87.12a4.08,4.08,0,0,1-8.15,0,3.82,3.82,0,0,1,.11-.9,4.07,4.07,0,0,1,7.75-.61A4.18,4.18,0,0,1,141.3,194.71ZM158.21,124a4.06,4.06,0,1,1-4.07,4.07A4.07,4.07,0,0,1,158.21,124Zm20.5,36a4.08,4.08,0,0,1-3,3.91,4.35,4.35,0,0,1-1.09.16,4.1,4.1,0,0,1-4.06-3.94s0-.09,0-.13a4.07,4.07,0,0,1,3.62-4,3,3,0,0,1,.31,0l.14,0a4.18,4.18,0,0,1,4.08,4.08Zm12.35-27.86A4.14,4.14,0,0,1,187,128.1a4.06,4.06,0,1,1,4.08,4.08Zm27.37,52a4.08,4.08,0,0,1,0-8.15c.11,0,.22,0,.33,0a4.06,4.06,0,0,1-.33,8.11Z"/></svg>