<svg id="Layer_1" data-name="Layer 1" xmlns="http://www.w3.org/2000/svg" viewBox="0 0 300 300"><defs><style>.cls-1{fill:#003057;}</style></defs><path class="cls-1" d="M210.31,170.14a9.46,9.46,0,0,0-5.37,1.66l-7.06-7.43a2.54,2.54,0,0,0-.49-.39,9.51,9.51,0,1,0-17.49-5.16,9.39,9.39,0,0,0,1,4.16l-7.4,7.79-.06.09a13,13,0,0,0-18.64,8l-16.71.44V141.82h1.12a5.67,5.67,0,0,0,5.66-5.66v-8.25a5.67,5.67,0,0,0-5.66-5.66H114.54c.22-2.71,1.52-11,9.16-15.43l.15-.12a1.8,1.8,0,0,0,.46,0c8-1.77,13.69-5.47,16.95-11,4.93-8.33,2.3-17.67,2.18-18.06a2.41,2.41,0,0,0-2.66-1.72c-8.06,1.15-13.84,4.41-17.18,9.69-4,6.29-3.32,13.66-2.64,17.25a22.34,22.34,0,0,0-8.66,9.59,26.83,26.83,0,0,0-7.57-9.58c.57-2.88,1.46-10.15-2.48-16.8-3.26-5.51-9-9.21-17-11a2.42,2.42,0,0,0-2.84,1.65c-.14.44-3.27,10.92,2.12,19.43,3.15,5,8.44,8.13,15.75,9.45a2.43,2.43,0,0,0,.25.2c.38.24,9.22,6,8.87,16.46H85.85a5.67,5.67,0,0,0-5.67,5.66v8.25a5.67,5.67,0,0,0,5.67,5.66h.84v18.46s0,0,0,0v41.87a23,23,0,0,0,6,15.67c4.53,4.74,11.19,7.14,19.77,7.14,8.15,0,14.55-2.39,19-7.09,6.75-7.11,6.56-16.92,6.52-17.93V184.1h0l16.28-.43a13,13,0,0,0,12.89,11.58c.25,0,.49,0,.73,0l7.38,7.78a9.39,9.39,0,0,0-1,4.16,9.51,9.51,0,1,0,9.51-9.51,9.39,9.39,0,0,0-5.37,1.67l-5.26-5.54a13,13,0,0,0,3.88-19.86l6.88-7.25a9.47,9.47,0,0,0,10,.49,2.85,2.85,0,0,0,.38.55l7.4,7.79a9.35,9.35,0,0,0-1,4.15,9.51,9.51,0,1,0,9.51-9.5Zm-82.63-82c2.25-3.55,6.12-5.93,11.52-7.09a19.2,19.2,0,0,1-2.13,12.17c-2.24,3.76-6.09,6.47-11.47,8.07C125.11,98.29,124.78,92.75,127.68,88.17Zm-39,5.4C85.79,89,86.11,83.44,86.6,80.39,92,82,95.82,84.7,98.06,88.46a19.2,19.2,0,0,1,2.13,12.17C94.8,99.47,90.94,97.1,88.69,93.57ZM85,136.16v-8.25a.83.83,0,0,1,.83-.83h53.33a.83.83,0,0,1,.82.83v8.25a.82.82,0,0,1-.82.82H85.85A.83.83,0,0,1,85,136.16Zm48.2,5.66V166c-6.27-3.76-15.73-1.95-22.49-.65-2,.37-3.64.7-4.93.83-4.52.46-11.23-4.4-14.28-7v-17.3ZM128,214.6c-3.52,3.69-8.73,5.56-15.49,5.56-7.19,0-12.65-1.89-16.24-5.6-4.94-5.12-4.75-12.16-4.75-12.22V165.28c3.83,2.78,9.67,6.18,14.78,5.66,1.49-.15,3.28-.49,5.34-.89,7.61-1.46,18-3.43,21.58,2.61v27.49C133.23,200.24,133.55,208.8,128,214.6Zm55.91-12.12a4.67,4.67,0,1,1-4.67,4.67A4.68,4.68,0,0,1,183.91,202.48ZM173,188a8.14,8.14,0,1,1,2.38-5.75A8.11,8.11,0,0,1,173,188Zm16.4-24.54a4.67,4.67,0,1,1,4.67-4.67A4.67,4.67,0,0,1,189.41,163.49Zm20.9,20.82a4.67,4.67,0,1,1,4.67-4.67A4.67,4.67,0,0,1,210.31,184.31Z"/></svg>