<svg id="Layer_1" data-name="Layer 1" xmlns="http://www.w3.org/2000/svg" viewBox="0 0 300 300"><defs><style>.cls-1{fill:#003057;}</style></defs><path class="cls-1" d="M184.46,112.37a2.43,2.43,0,0,0-.94-.19,2.48,2.48,0,0,0-2.3,1.54l-1.17,2.85-1.4,3.43L159,168l-8.58-3.85a2.13,2.13,0,0,0-1.76,0l-8.17,3.67L120.86,120l-1.4-3.43-1.17-2.85a2.5,2.5,0,0,0-2.3-1.54,2.36,2.36,0,0,0-.94.19,2.48,2.48,0,0,0-1.36,3.24L115,118.7l1.41,3.42,19.56,47.69-12.55,5.64a2.07,2.07,0,0,0-.7.51,2.12,2.12,0,0,0-.94,1.77l0,28.49a2.13,2.13,0,0,0,1.18,1.91l25.42,12.64a2.2,2.2,0,0,0,.94.22l.25,0,.3,0a2.1,2.1,0,0,0,.92-.21l25.41-12a2.12,2.12,0,0,0,1.21-1.92V177.73a2.13,2.13,0,0,0-.94-1.77,2.07,2.07,0,0,0-.7-.51L163.5,170l19.64-47.86,1.41-3.42,1.26-3.09A2.48,2.48,0,0,0,184.46,112.37Zm-36.8,104-22.27-11.08,0-25,22.23,10.31Zm26-10.48-22.27,10.54v-25.8l22.27-10.31Zm-24.12-18.48-21.39-10,21.39-9.61,21.43,9.61Z"/><path class="cls-1" d="M130.37,83.06a2,2,0,0,0-.7-.52L104.38,71.19a2.05,2.05,0,0,0-.88-.19,2,2,0,0,0-.87.19L77.37,82.54a2.21,2.21,0,0,0-.7.52,2.1,2.1,0,0,0-.94,1.76l0,28.5a2.11,2.11,0,0,0,1.17,1.9l25.42,12.64a2,2,0,0,0,.94.22h.25l.31,0a2.23,2.23,0,0,0,.91-.2l8.57-4.06-1.4-3.43-6.51,3.08V97.69l22.27-10.32v25.57l-4.07,1.93,1.4,3.42,5.15-2.44a2.12,2.12,0,0,0,1.21-1.92V84.82A2.1,2.1,0,0,0,130.37,83.06Zm-28.72,40.36L79.38,112.35l0-25,22.23,10.32Zm1.85-28.95-21.39-10,21.39-9.61,21.43,9.61Z"/><path class="cls-1" d="M168.69,84.82v29.11a2.12,2.12,0,0,0,1.21,1.92l5.15,2.44,1.4-3.42-4.07-1.93V87.37l22.27,10.32v25.79l-6.51-3.08-1.4,3.43,8.57,4.06a2.23,2.23,0,0,0,.91.2l.31,0h.25a2,2,0,0,0,.94-.22l25.42-12.64a2.11,2.11,0,0,0,1.17-1.9l0-28.5a2.1,2.1,0,0,0-.94-1.76,2.21,2.21,0,0,0-.7-.52L197.37,71.19a2,2,0,0,0-.87-.19,2.05,2.05,0,0,0-.88.19L170.33,82.54a2,2,0,0,0-.7.52A2.1,2.1,0,0,0,168.69,84.82Zm29.66,12.87,22.23-10.32,0,25-22.27,11.07ZM175.07,84.46l21.43-9.61,21.39,9.61-21.39,10Z"/></svg>