<svg id="Layer_1" data-name="Layer 1" xmlns="http://www.w3.org/2000/svg" viewBox="0 0 300 300"><defs><style>.cls-1{fill:#ff6720;}</style></defs><path class="cls-1" d="M233.34,205.7l-33.63-26.28a2.64,2.64,0,0,0-1.93-.53,2.59,2.59,0,0,0-1.74,1l-1.44,1.84-11.49-9a64.11,64.11,0,0,0-.42-71.62l5.39-4.29-13.4-1.52-1.52,13.4,5.43-4.32A58.65,58.65,0,0,1,94.1,183.6a2.56,2.56,0,0,0-3.33.16l0,0a2.61,2.61,0,0,0,.18,4,64,64,0,0,0,82.81-3.93h0l11.95,9.33-1.06,1.35a2.61,2.61,0,0,0,.45,3.67l33.64,26.27a2.56,2.56,0,0,0,1.61.56l.32,0a2.61,2.61,0,0,0,1.74-1l11.42-14.62A2.61,2.61,0,0,0,233.34,205.7Zm-45.91-17.82-9.53-7.44,2.49-3.19,9.53,7.44Zm32.43,30.83-29.51-23.05,8.2-10.5,29.51,23.05Z"/><path class="cls-1" d="M165.39,92.49a2.58,2.58,0,0,0,3.33-.16l0,0a2.61,2.61,0,0,0-.18-4A63.88,63.88,0,0,0,76.8,175l-5.39,4.29,13.4,1.52,1.52-13.4L80.9,171.7a58.64,58.64,0,0,1,84.49-79.21Z"/></svg>