<svg id="Layer_1" data-name="Layer 1" xmlns="http://www.w3.org/2000/svg" viewBox="0 0 300 300"><defs><style>.cls-1{fill:#003057;}</style></defs><path class="cls-1" d="M141,142.71a.24.24,0,0,0-.13-.41l-4.14-.6a.26.26,0,0,1-.18-.13l-1.84-3.75a.25.25,0,0,0-.44,0l-1.84,3.75a.26.26,0,0,1-.19.13l-4.13.6a.24.24,0,0,0-.13.41l3,2.91a.29.29,0,0,1,.07.22l-.71,4.11a.24.24,0,0,0,.35.26l3.7-1.94a.22.22,0,0,1,.22,0l3.7,1.94a.25.25,0,0,0,.35-.26l-.71-4.11a.26.26,0,0,1,.07-.22Z"/><path class="cls-1" d="M128,122a.24.24,0,0,0-.13-.41l-4.13-.6a.24.24,0,0,1-.18-.14l-1.85-3.74a.25.25,0,0,0-.44,0l-1.84,3.74a.28.28,0,0,1-.18.14l-4.14.6a.24.24,0,0,0-.13.41l3,2.91a.26.26,0,0,1,.07.22l-.71,4.11a.25.25,0,0,0,.35.26l3.7-2a.28.28,0,0,1,.22,0l3.7,2a.24.24,0,0,0,.35-.26l-.71-4.11a.29.29,0,0,1,.07-.22Z"/><path class="cls-1" d="M118,142.71a.24.24,0,0,0-.13-.41l-4.13-.6a.23.23,0,0,1-.18-.13l-1.85-3.75a.25.25,0,0,0-.44,0l-1.84,3.75a.26.26,0,0,1-.18.13l-4.14.6a.24.24,0,0,0-.13.41l3,2.91a.26.26,0,0,1,.07.22l-.71,4.11a.25.25,0,0,0,.35.26l3.7-1.94a.22.22,0,0,1,.22,0l3.7,1.94a.24.24,0,0,0,.35-.26l-.71-4.11a.29.29,0,0,1,.07-.22Z"/><path class="cls-1" d="M140.89,99.34l-4.14-.6a.26.26,0,0,1-.18-.13l-1.84-3.75a.25.25,0,0,0-.44,0l-1.84,3.75a.26.26,0,0,1-.19.13l-4.13.6a.24.24,0,0,0-.13.41l3,2.92a.26.26,0,0,1,.07.21l-.71,4.11a.24.24,0,0,0,.35.26l3.7-1.94a.22.22,0,0,1,.22,0l3.7,1.94a.25.25,0,0,0,.35-.26l-.71-4.11a.23.23,0,0,1,.07-.21l3-2.92A.24.24,0,0,0,140.89,99.34Z"/><path class="cls-1" d="M94.06,142.71a.24.24,0,0,0-.13-.41l-4.13-.6a.23.23,0,0,1-.18-.13l-1.85-3.75a.24.24,0,0,0-.43,0l-1.85,3.75a.24.24,0,0,1-.18.13l-4.13.6a.24.24,0,0,0-.14.41l3,2.91a.23.23,0,0,1,.07.22L83.4,150a.24.24,0,0,0,.35.26l3.69-1.94a.24.24,0,0,1,.23,0l3.69,1.94a.24.24,0,0,0,.35-.26l-.7-4.11a.23.23,0,0,1,.07-.22Z"/><path class="cls-1" d="M105.05,122a.24.24,0,0,0-.13-.41l-4.13-.6a.24.24,0,0,1-.18-.14l-1.85-3.74a.24.24,0,0,0-.43,0l-1.85,3.74a.25.25,0,0,1-.18.14l-4.13.6A.24.24,0,0,0,92,122l3,2.91a.23.23,0,0,1,.07.22l-.7,4.11a.24.24,0,0,0,.35.26l3.69-2a.31.31,0,0,1,.23,0l3.69,2a.24.24,0,0,0,.35-.26l-.7-4.11a.23.23,0,0,1,.07-.22Z"/><path class="cls-1" d="M118,99.75a.24.24,0,0,0-.13-.41l-4.13-.6a.23.23,0,0,1-.18-.13l-1.85-3.75a.25.25,0,0,0-.44,0l-1.84,3.75a.26.26,0,0,1-.18.13l-4.14.6a.24.24,0,0,0-.13.41l3,2.92a.23.23,0,0,1,.07.21l-.71,4.11a.25.25,0,0,0,.35.26l3.7-1.94a.22.22,0,0,1,.22,0l3.7,1.94a.24.24,0,0,0,.35-.26l-.71-4.11a.26.26,0,0,1,.07-.21Z"/><path class="cls-1" d="M165.8,190.27h-7.44a3.63,3.63,0,0,0-3.62,3.62v21.38a3.63,3.63,0,0,0,3.62,3.62h7.44a3.63,3.63,0,0,0,3.62-3.62V193.89A3.63,3.63,0,0,0,165.8,190.27Zm0,25,0,0-7.46,0,0-21.4,7.46,0Z"/><path class="cls-1" d="M185.75,182.66h-6.93a3.88,3.88,0,0,0-3.87,3.88V215a3.88,3.88,0,0,0,3.87,3.88h6.93a3.88,3.88,0,0,0,3.88-3.88V186.54A3.88,3.88,0,0,0,185.75,182.66ZM186,215a.29.29,0,0,1-.28.28h-6.93a.28.28,0,0,1-.27-.28V186.54a.27.27,0,0,1,.27-.28h6.93a.28.28,0,0,1,.28.28Z"/><path class="cls-1" d="M205.68,173.05h-6.36a4.17,4.17,0,0,0-4.16,4.17v37.5a4.17,4.17,0,0,0,4.16,4.17h6.36a4.17,4.17,0,0,0,4.16-4.17v-37.5A4.17,4.17,0,0,0,205.68,173.05Zm.56,41.67a.57.57,0,0,1-.56.57h-6.36a.57.57,0,0,1-.56-.57v-37.5a.56.56,0,0,1,.56-.57h6.36a.56.56,0,0,1,.56.57Z"/><path class="cls-1" d="M225.51,158.73H219.9a4.54,4.54,0,0,0-4.53,4.54v51.08a4.54,4.54,0,0,0,4.53,4.54h5.61a4.54,4.54,0,0,0,4.54-4.54V163.27A4.54,4.54,0,0,0,225.51,158.73Zm.94,55.62a.94.94,0,0,1-.94.94H219.9a.94.94,0,0,1-.93-.94V163.27a.94.94,0,0,1,.93-.94h5.61a.94.94,0,0,1,.94.94Z"/><path class="cls-1" d="M208.85,159.78l12.41-13.68a6.7,6.7,0,1,0,2-13.1,6.71,6.71,0,0,0-5.05,11.11L207,156.5l-12.82-4.21a5.46,5.46,0,0,0-10.91.42,5.39,5.39,0,0,0,1.5,3.74l-4.53,16-10.3-8.66a1.8,1.8,0,0,0-2.4.07l-5.05,4.8a5.34,5.34,0,0,0-2-.39,5.61,5.61,0,1,0,5.6,5.6,5.51,5.51,0,0,0-.8-2.88l3.59-3.41L180,177a1.83,1.83,0,0,0,1.69.34,1.81,1.81,0,0,0,1.2-1.23l5.09-18a5.52,5.52,0,0,0,5.21-2.35L207,160.28A1.81,1.81,0,0,0,208.85,159.78Zm14.4-23.18a3.11,3.11,0,1,1-3.1,3.1A3.1,3.1,0,0,1,223.25,136.6Zm-62.82,39.28a2,2,0,1,1,2-2A2,2,0,0,1,160.43,175.88Zm28.27-21.31a1.86,1.86,0,1,1,1.86-1.86A1.86,1.86,0,0,1,188.7,154.57Z"/><path class="cls-1" d="M177,150.86a2.15,2.15,0,0,0-2.15-2.15H153.42a2.15,2.15,0,0,0,0,4.3h21.47A2.16,2.16,0,0,0,177,150.86Z"/><path class="cls-1" d="M147.4,169.33a2.15,2.15,0,1,0,0-4.3H76.12a2.14,2.14,0,0,0-.88.19A63.45,63.45,0,0,1,74,152.58v-5.16A63.2,63.2,0,0,1,137.1,84.29h5.15a62.93,62.93,0,0,1,41.29,15.46H153.42a2.15,2.15,0,1,0,0,4.3h34.35l.24,0a63.58,63.58,0,0,1,9,12H153.42a2.15,2.15,0,1,0,0,4.3h45.52l.31,0a62.09,62.09,0,0,1,4.3,12H153.42a2.15,2.15,0,1,0,0,4.3h51a61.58,61.58,0,0,1,.79,6.58,2.15,2.15,0,1,0,4.29-.29,67.59,67.59,0,0,0-67.28-63H137.1a67.51,67.51,0,0,0-67.43,67.42v5.16A67.51,67.51,0,0,0,137.1,220h5.15a2.15,2.15,0,1,0,0-4.29H137.1A62.84,62.84,0,0,1,97.84,202H147.4a2.15,2.15,0,1,0,0-4.29H95a2.15,2.15,0,0,0-1.44.56,63.31,63.31,0,0,1-10.22-12.59H147.4a2.15,2.15,0,1,0,0-4.29H82.13a2.19,2.19,0,0,0-1,.28,63.05,63.05,0,0,1-4.84-12.3Z"/></svg>