<svg id="Layer_1" data-name="Layer 1" xmlns="http://www.w3.org/2000/svg" viewBox="0 0 300 300"><defs><style>.cls-1{fill:#003057;}</style></defs><path class="cls-1" d="M180.35,145.6H165.8a.75.75,0,0,1-.75-.75V130.3a4.56,4.56,0,0,0-4.53-4.6h-21a4.57,4.57,0,0,0-4.56,4.56v14.56a.76.76,0,0,1-.75.75H119.68a4.59,4.59,0,0,0-4.6,4.53v21a4.58,4.58,0,0,0,4.57,4.57H134.2a.76.76,0,0,1,.75.75v14.52a4.57,4.57,0,0,0,4.53,4.6h21A4.58,4.58,0,0,0,165,191V176.42a.75.75,0,0,1,.75-.75h14.55a4.59,4.59,0,0,0,4.6-4.53v-21A4.58,4.58,0,0,0,180.35,145.6Zm-1.07,23.69a.75.75,0,0,1-.75.75h-16.3a2.81,2.81,0,0,0-2.81,2.81v16.3a.75.75,0,0,1-.75.75H141.33a.75.75,0,0,1-.75-.75v-16.3a2.81,2.81,0,0,0-2.81-2.81h-16.3a.75.75,0,0,1-.75-.75V152a.74.74,0,0,1,.75-.75h16.3a2.82,2.82,0,0,0,2.81-2.82V132.08a.76.76,0,0,1,.75-.75h17.3a.75.75,0,0,1,.75.75v16.3a2.82,2.82,0,0,0,2.82,2.82h16.33a.75.75,0,0,1,.75.75Z"/><path class="cls-1" d="M228.16,104.35A25.3,25.3,0,0,0,212.06,99H182.67a.76.76,0,0,1-.75-.75V85.71a9.62,9.62,0,0,0-9.31-9.95H127.69a9.61,9.61,0,0,0-9.6,9.13,7.3,7.3,0,0,0,0,.81V98.2a.76.76,0,0,1-.75.75H87.94c-11,0-23.86,6.25-23.86,23.86v77.58c0,8.06,2.61,14.3,7.77,18.53a25.29,25.29,0,0,0,16.09,5.33H212.06c11,0,23.86-6.25,23.86-23.86V122.88C235.92,114.81,233.31,108.58,228.16,104.35ZM123.71,85.71c0-3,1.54-4.56,4.57-4.56h43.48c3,0,4.56,1.53,4.56,4.56V98.2a.75.75,0,0,1-.75.75H124.46a.76.76,0,0,1-.75-.75ZM230.29,200.39c0,5.48-1.78,18.23-18.23,18.23H87.94c-16.45,0-18.23-12.75-18.23-18.23V122.88c0-5.48,1.78-18.23,18.23-18.23H212.06c16.45,0,18.23,12.75,18.23,18.23Z"/></svg>