<svg id="Layer_1" data-name="Layer 1" xmlns="http://www.w3.org/2000/svg" viewBox="0 0 300 300"><defs><style>.cls-1{fill:#003057;}</style></defs><circle class="cls-1" cx="150" cy="193.2" r="13.2"/><path class="cls-1" d="M188.54,176.94a2.38,2.38,0,0,1-1.56-.6c-39-33.3-70.18-1.78-71.49-.42a2.41,2.41,0,0,1-3.88-.44,4.05,4.05,0,0,1,.34-4.84c.35-.37,35.59-36.28,78.14,0a4,4,0,0,1,.72,4.78A2.62,2.62,0,0,1,188.54,176.94Z"/><path class="cls-1" d="M214,157.86a2.42,2.42,0,0,1-1.55-.6c-28.27-24.11-57.59-31.57-87.15-22.17A95.21,95.21,0,0,0,89,156.68a2.4,2.4,0,0,1-3.88-.44,4.05,4.05,0,0,1,.34-4.84,98.73,98.73,0,0,1,38.2-22.9c21.47-6.9,54.84-8.5,91.86,23.08a4,4,0,0,1,.72,4.78A2.65,2.65,0,0,1,214,157.86Z"/><path class="cls-1" d="M237.24,137.07a2.33,2.33,0,0,1-1.55-.6c-48.94-41.74-92.89-39.68-121.15-30.6-30.61,9.84-49.82,29.68-50,29.88a2.4,2.4,0,0,1-3.89-.43,4.07,4.07,0,0,1,.35-4.85c.81-.85,20.36-21,52.18-31.26,29.36-9.43,75-11.61,125.63,31.58a4,4,0,0,1,.72,4.78A2.64,2.64,0,0,1,237.24,137.07Z"/></svg>