<svg id="Layer_1" data-name="Layer 1" xmlns="http://www.w3.org/2000/svg" viewBox="0 0 300 300"><defs><style>.cls-1{fill:#003057;}</style></defs><path class="cls-1" d="M145.42,103.72a.35.35,0,0,1-.5.36l-5.21-2.74a.36.36,0,0,0-.32,0l-5.21,2.74a.34.34,0,0,1-.49-.36l1-5.8a.33.33,0,0,0-.1-.3l-4.21-4.11a.35.35,0,0,1,.19-.59l5.82-.84a.36.36,0,0,0,.26-.19l2.61-5.28a.34.34,0,0,1,.61,0l2.6,5.28a.36.36,0,0,0,.26.19l5.83.84a.35.35,0,0,1,.19.59l-4.22,4.11a.33.33,0,0,0-.1.3Z"/><path class="cls-1" d="M115.42,109.72a.35.35,0,0,1-.5.36l-5.21-2.74a.36.36,0,0,0-.32,0l-5.21,2.74a.34.34,0,0,1-.49-.36l1-5.8a.33.33,0,0,0-.1-.3l-4.21-4.11a.35.35,0,0,1,.19-.59l5.82-.84a.36.36,0,0,0,.26-.19l2.61-5.28a.34.34,0,0,1,.61,0l2.6,5.28a.36.36,0,0,0,.26.19l5.83.84a.35.35,0,0,1,.19.59l-4.22,4.11a.33.33,0,0,0-.1.3Z"/><path class="cls-1" d="M173.42,109.72a.35.35,0,0,1-.5.36l-5.21-2.74a.36.36,0,0,0-.32,0l-5.21,2.74a.34.34,0,0,1-.49-.36l1-5.8a.33.33,0,0,0-.1-.3l-4.21-4.11a.35.35,0,0,1,.19-.59l5.82-.84a.36.36,0,0,0,.26-.19l2.61-5.28a.34.34,0,0,1,.61,0l2.6,5.28a.36.36,0,0,0,.26.19l5.83.84a.35.35,0,0,1,.19.59l-4.22,4.11a.33.33,0,0,0-.1.3Z"/><path class="cls-1" d="M115.42,207.72a.35.35,0,0,1-.5.36l-5.21-2.74a.36.36,0,0,0-.32,0l-5.21,2.74a.34.34,0,0,1-.49-.36l1-5.8a.33.33,0,0,0-.1-.3l-4.21-4.11a.35.35,0,0,1,.19-.59l5.82-.84a.36.36,0,0,0,.26-.19l2.61-5.28a.34.34,0,0,1,.61,0l2.6,5.28a.36.36,0,0,0,.26.19l5.83.84a.35.35,0,0,1,.19.59l-4.22,4.11a.33.33,0,0,0-.1.3Z"/><path class="cls-1" d="M96.42,130.72a.35.35,0,0,1-.5.36l-5.21-2.74a.36.36,0,0,0-.32,0l-5.21,2.74a.34.34,0,0,1-.49-.36l1-5.8a.33.33,0,0,0-.1-.3l-4.21-4.11a.35.35,0,0,1,.19-.59l5.82-.84a.36.36,0,0,0,.26-.19l2.61-5.28a.34.34,0,0,1,.61,0l2.6,5.28a.36.36,0,0,0,.26.19l5.83.84a.35.35,0,0,1,.19.59l-4.22,4.11a.33.33,0,0,0-.1.3Z"/><path class="cls-1" d="M194.42,130.72a.35.35,0,0,1-.5.36l-5.21-2.74a.36.36,0,0,0-.32,0l-5.21,2.74a.34.34,0,0,1-.49-.36l1-5.8a.33.33,0,0,0-.1-.3l-4.21-4.11a.35.35,0,0,1,.19-.59l5.82-.84a.36.36,0,0,0,.26-.19l2.61-5.28a.34.34,0,0,1,.61,0l2.6,5.28a.36.36,0,0,0,.26.19l5.83.84a.35.35,0,0,1,.19.59l-4.22,4.11a.33.33,0,0,0-.1.3Z"/><path class="cls-1" d="M96.42,187.72a.35.35,0,0,1-.5.36l-5.21-2.74a.36.36,0,0,0-.32,0l-5.21,2.74a.34.34,0,0,1-.49-.36l1-5.8a.33.33,0,0,0-.1-.3l-4.21-4.11a.35.35,0,0,1,.19-.59l5.82-.84a.36.36,0,0,0,.26-.19l2.61-5.28a.34.34,0,0,1,.61,0l2.6,5.28a.36.36,0,0,0,.26.19l5.83.84a.35.35,0,0,1,.19.59l-4.22,4.11a.33.33,0,0,0-.1.3Z"/><path class="cls-1" d="M89.42,158.72a.35.35,0,0,1-.5.36l-5.21-2.74a.36.36,0,0,0-.32,0l-5.21,2.74a.34.34,0,0,1-.49-.36l1-5.8a.33.33,0,0,0-.1-.3l-4.21-4.11a.35.35,0,0,1,.19-.59l5.82-.84a.36.36,0,0,0,.26-.19l2.61-5.28a.34.34,0,0,1,.61,0l2.6,5.28a.36.36,0,0,0,.26.19l5.83.84a.35.35,0,0,1,.19.59l-4.22,4.11a.33.33,0,0,0-.1.3Z"/><path class="cls-1" d="M167,195.68h-8.67a4.22,4.22,0,0,0-4.21,4.22v24.89a4.22,4.22,0,0,0,4.21,4.21H167a4.22,4.22,0,0,0,4.21-4.21V199.9A4.22,4.22,0,0,0,167,195.68Zm0,4.22v24.89l0,0-8.69,0,0-24.91Z"/><path class="cls-1" d="M190.26,186.82h-8.07a4.51,4.51,0,0,0-4.51,4.51v33.15a4.52,4.52,0,0,0,4.51,4.52h8.07a4.52,4.52,0,0,0,4.51-4.52V191.33A4.51,4.51,0,0,0,190.26,186.82Zm0,38h-8.07a.33.33,0,0,1-.32-.33V191.33a.33.33,0,0,1,.32-.32h8.07a.32.32,0,0,1,.32.32v33.15A.32.32,0,0,1,190.26,224.81Z"/><path class="cls-1" d="M213.46,175.63h-7.4a4.85,4.85,0,0,0-4.85,4.85v43.67a4.85,4.85,0,0,0,4.85,4.85h7.4a4.85,4.85,0,0,0,4.84-4.85V180.48A4.85,4.85,0,0,0,213.46,175.63Zm.65,4.85v43.67a.66.66,0,0,1-.65.66h-7.4a.66.66,0,0,1-.66-.66V180.48a.65.65,0,0,1,.66-.65h7.4A.65.65,0,0,1,214.11,180.48Z"/><path class="cls-1" d="M236.55,159H230a5.29,5.29,0,0,0-5.28,5.28v59.48A5.29,5.29,0,0,0,230,229h6.53a5.29,5.29,0,0,0,5.29-5.28V164.24A5.29,5.29,0,0,0,236.55,159Zm1.09,5.28v59.48a1.09,1.09,0,0,1-1.09,1.09H230a1.09,1.09,0,0,1-1.09-1.09V164.24a1.09,1.09,0,0,1,1.09-1.09h6.53A1.09,1.09,0,0,1,237.64,164.24Z"/><path class="cls-1" d="M217.15,160.18l14.45-15.93a7.69,7.69,0,0,0,2.32.36,7.81,7.81,0,1,0-7.81-7.8,7.7,7.7,0,0,0,1.93,5.12L215,156.36,200,151.46a6.35,6.35,0,0,0-12.69.49,6.29,6.29,0,0,0,1.74,4.36L183.8,175l-12-10.09a2.11,2.11,0,0,0-2.8.09l-5.88,5.58a6.3,6.3,0,0,0-2.35-.45,6.52,6.52,0,1,0,6.52,6.52,6.43,6.43,0,0,0-.94-3.36l4.18-4,13,11a2.12,2.12,0,0,0,2,.4,2.09,2.09,0,0,0,1.4-1.44l5.92-21a6.43,6.43,0,0,0,6.07-2.73l16,5.25A2.13,2.13,0,0,0,217.15,160.18Zm13.16-23.37a3.61,3.61,0,1,1,3.61,3.61A3.62,3.62,0,0,1,230.31,136.81Zm-36.62,13a2.17,2.17,0,1,1-2.17,2.17A2.17,2.17,0,0,1,193.69,149.78ZM163.11,176.6a2.33,2.33,0,1,1-2.33-2.32A2.33,2.33,0,0,1,163.11,176.6Z"/><path class="cls-1" d="M144.65,209.23l-.23-1.31a.33.33,0,0,1,.1-.3l.13-.13v-5.13l-1.93-.28a.36.36,0,0,1-.26-.19l-2.6-5.28a.34.34,0,0,0-.61,0l-2.61,5.28a.36.36,0,0,1-.26.19l-5.82.84a.35.35,0,0,0-.19.59l4.21,4.11a.33.33,0,0,1,.1.3l-1,5.8a.34.34,0,0,0,.49.36l5.21-2.74a.36.36,0,0,1,.32,0l4.94,2.6Z"/><path class="cls-1" d="M140.5,232h-6A78.58,78.58,0,0,1,56,153.5v-6A78.58,78.58,0,0,1,134.5,69h6a78.68,78.68,0,0,1,78.33,73.33,2.5,2.5,0,0,1-5,.33A73.67,73.67,0,0,0,140.5,74h-6A73.58,73.58,0,0,0,61,147.5v6A73.58,73.58,0,0,0,134.5,227h6a2.5,2.5,0,0,1,0,5Z"/></svg>