<svg id="Layer_1" data-name="Layer 1" xmlns="http://www.w3.org/2000/svg" viewBox="0 0 300 300"><defs><style>.cls-1{fill:#fff;}</style></defs><path class="cls-1" d="M223.65,107.06a.22.22,0,0,0,0-.08,1.9,1.9,0,0,0-.1-.57.49.49,0,0,0,0-.11,2.1,2.1,0,0,0-.24-.5l-.06-.11a2.59,2.59,0,0,0-.41-.46l-.15-.11a1.85,1.85,0,0,0-.4-.24.57.57,0,0,0-.13-.08l-.06,0a2.64,2.64,0,0,0-.57-.14l-.22,0H221l-19.47.94a2.5,2.5,0,0,0,.12,5h.12l12.93-.62-29.13,28.69-27.25-24.43a2.51,2.51,0,0,0-3.48.13L81.3,191.16a2.5,2.5,0,0,0,3.61,3.46l71.91-75.1L184,143.9a2.49,2.49,0,0,0,3.42-.08l31.22-30.74v14.24a2.5,2.5,0,1,0,5,0V107.06Z"/><path class="cls-1" d="M77,127.64a2.5,2.5,0,0,0,.16,3.53l30.24,27.67,3.46-3.61L80.53,127.48A2.51,2.51,0,0,0,77,127.64Z"/><path class="cls-1" d="M213,186.08l-.24-20.22a2.5,2.5,0,1,0-5,.06l.18,14.63L159.12,138a2.51,2.51,0,0,0-3.49.2l-28.91,31.53-7-6.4-3.46,3.61,8.93,8.16a2.5,2.5,0,0,0,3.52-.15l29-31.58,46.74,40.74-13.6-.65a2.5,2.5,0,1,0-.24,5l19.47.94h.12a2.51,2.51,0,0,0,2.43-1.91A2.47,2.47,0,0,0,213,186.08Z"/></svg>