<svg id="Layer_1" data-name="Layer 1" xmlns="http://www.w3.org/2000/svg" viewBox="0 0 300 300"><defs><style>.cls-1{fill:#003057;}</style></defs><path class="cls-1" d="M150,196a46.14,46.14,0,1,1,46.14-46.14A46.19,46.19,0,0,1,150,196Zm0-87.89a41.75,41.75,0,1,0,41.75,41.75A41.8,41.8,0,0,0,150,108.11Z"/><path class="cls-1" d="M150,174a24.17,24.17,0,1,1,24.17-24.17A24.2,24.2,0,0,1,150,174Zm0-43.94a19.77,19.77,0,1,0,19.77,19.77A19.79,19.79,0,0,0,150,130.09Z"/><path class="cls-1" d="M150,95.67a2.5,2.5,0,0,1-2.5-2.5V75a2.5,2.5,0,0,1,5,0V93.17A2.5,2.5,0,0,1,150,95.67Z"/><path class="cls-1" d="M150,227.5a2.5,2.5,0,0,1-2.5-2.5V206.83a2.5,2.5,0,0,1,5,0V225A2.5,2.5,0,0,1,150,227.5Z"/><path class="cls-1" d="M154.83,86.35a63.78,63.78,0,0,1,58.7,58.89h4.41a68.19,68.19,0,0,0-63.11-63.3Z"/><path class="cls-1" d="M86.47,145.24a63.78,63.78,0,0,1,58.7-58.89V81.94a68.19,68.19,0,0,0-63.11,63.3Z"/><path class="cls-1" d="M145.17,213.37A63.79,63.79,0,0,1,86.5,154.91H82.1a68.18,68.18,0,0,0,63.07,62.87Z"/><path class="cls-1" d="M213.5,154.91a63.79,63.79,0,0,1-58.67,58.46v4.41a68.18,68.18,0,0,0,63.07-62.87Z"/><path class="cls-1" d="M225,152.5H206.83a2.5,2.5,0,0,1,0-5H225a2.5,2.5,0,0,1,0,5Z"/><path class="cls-1" d="M93.17,152.5H75a2.5,2.5,0,0,1,0-5H93.17a2.5,2.5,0,1,1,0,5Z"/></svg>