<svg id="Layer_1" data-name="Layer 1" xmlns="http://www.w3.org/2000/svg" viewBox="0 0 300 300"><defs><style>.cls-1{fill:#ff6720;}</style></defs><path class="cls-1" d="M145.73,203.83h-2.65c-7.29,0-12.42-5.15-12.46-12.43v-1.53a42.39,42.39,0,0,0-.59-8.74,30.1,30.1,0,0,0-8.32-15.51A43.18,43.18,0,0,1,112,151.55a41.31,41.31,0,0,1,9.65-45.82A40.28,40.28,0,0,1,152,94.32a40.86,40.86,0,0,1,38.42,32.3c3.1,14.59-.61,27.4-11,38.06-4.59,4.7-7.36,9.28-8.72,14.43a31.36,31.36,0,0,0-1,8v1.34a35.69,35.69,0,0,1-.21,5.23,11.86,11.86,0,0,1-11.34,10.11c-1.85.05-3.71,0-5.51,0l-2.1,0-.33,0h-4.38Zm4.4-104.55a35.39,35.39,0,0,0-25,10.08,36.29,36.29,0,0,0-8.47,40.25,38.3,38.3,0,0,0,8.58,12.45,35,35,0,0,1,9.7,18,47.2,47.2,0,0,1,.69,9.76v1.5c0,4.51,3,7.44,7.49,7.46h6.66a2,2,0,0,1,.34,0l2.47,0c1.75,0,3.57,0,5.33,0a6.8,6.8,0,0,0,6.52-5.79,30.17,30.17,0,0,0,.17-4.52v-1.39a36.62,36.62,0,0,1,1.18-9.25c1.56-5.94,4.82-11.39,10-16.66,9.18-9.39,12.45-20.66,9.72-33.52a36.32,36.32,0,0,0-33.73-28.34C151.21,99.29,150.67,99.28,150.13,99.28Z"/><path class="cls-1" d="M165.68,213.21H134.56a2.5,2.5,0,0,1,0-5h31.12a2.5,2.5,0,0,1,0,5Z"/><path class="cls-1" d="M163.32,221.6h-26.4a2.5,2.5,0,0,1,0-5h26.4a2.5,2.5,0,0,1,0,5Z"/><path class="cls-1" d="M157.72,230h-15.2a2.5,2.5,0,1,1,0-5h15.2a2.5,2.5,0,1,1,0,5Z"/><path class="cls-1" d="M150,87.12h0a2.49,2.49,0,0,1-2.47-2.53l.15-12.12a2.51,2.51,0,0,1,2.5-2.47h0a2.49,2.49,0,0,1,2.46,2.53l-.15,12.13A2.49,2.49,0,0,1,150,87.12Z"/><path class="cls-1" d="M216,137.11h0L203.8,137a2.5,2.5,0,0,1,0-5h0l12.13.15a2.5,2.5,0,0,1,0,5Z"/><path class="cls-1" d="M188.53,100.84a2.53,2.53,0,0,1-1.5-.5,2.49,2.49,0,0,1-.5-3.5l7.28-9.7a2.5,2.5,0,0,1,4,3l-7.28,9.7A2.5,2.5,0,0,1,188.53,100.84Z"/><path class="cls-1" d="M199.89,179.76a2.54,2.54,0,0,1-1.46-.47l-9.84-7.08a2.5,2.5,0,1,1,2.91-4.06l9.85,7.08a2.5,2.5,0,0,1-1.46,4.53Z"/><path class="cls-1" d="M84,137.11a2.5,2.5,0,0,1,0-5L96.14,132h0a2.5,2.5,0,0,1,0,5l-12.12.15Z"/><path class="cls-1" d="M111.47,100.84a2.5,2.5,0,0,1-2-1l-7.28-9.7a2.5,2.5,0,1,1,4-3l7.28,9.7a2.49,2.49,0,0,1-.5,3.5A2.53,2.53,0,0,1,111.47,100.84Z"/><path class="cls-1" d="M100.11,179.76a2.5,2.5,0,0,1-1.46-4.53l9.85-7.08a2.5,2.5,0,1,1,2.91,4.06l-9.84,7.08A2.54,2.54,0,0,1,100.11,179.76Z"/><path class="cls-1" d="M152.93,130.59h0a7.93,7.93,0,1,0,4.48,10.28A7.94,7.94,0,0,0,152.93,130.59Zm.35,8.66a3.49,3.49,0,1,1-3.25-4.78,3.39,3.39,0,0,1,1.28.25A3.49,3.49,0,0,1,153.28,139.25Z"/><path class="cls-1" d="M159.34,159.09h0a6,6,0,0,0,3.11-7.93l-.05-.12a.92.92,0,0,1,.2-1l0,0a.92.92,0,0,1,1-.21l.16.06a6,6,0,1,0,4.41-11.21l-.29-.12a.91.91,0,0,1-.55-.6,1.7,1.7,0,0,0,0-.39.93.93,0,0,1,.52-.88l.15-.06h0a6,6,0,0,0,3.12-7.9v0a6,6,0,0,0-7.93-3.11l-.12,0a.93.93,0,0,1-1-.22.92.92,0,0,1-.21-1l.06-.16a6,6,0,0,0-11.21-4.41l-.12.29a.91.91,0,0,1-.6.55,1.76,1.76,0,0,0-.4,0,.88.88,0,0,1-.87-.53l-.05-.12v0a6,6,0,0,0-7.93-3.11h0a6,6,0,0,0-3.1,7.93l.05.12a.92.92,0,0,1-.2,1l-.1.1a.88.88,0,0,1-1,.27l-.16-.06a6,6,0,1,0-4.41,11.21l.29.12a.95.95,0,0,1,.06,1.73l-.15.07h0a6,6,0,0,0-3.11,7.92v0a6,6,0,0,0,7.91,3.09l.13-.05a.92.92,0,0,1,1,.2l.1.1a.88.88,0,0,1,.27,1l-.06.16a6,6,0,0,0,3.4,7.81,6,6,0,0,0,4.61-.08,6,6,0,0,0,3.2-3.32l.12-.29a.91.91,0,0,1,.85-.59.9.9,0,0,1,.88.53l.06.14,0,0a6,6,0,0,0,7.91,3.08Zm-9-8.22a5.36,5.36,0,0,0-4.82,3.38l-.12.31a1.61,1.61,0,0,1-.85.87,1.59,1.59,0,0,1-2.09-.82,1.61,1.61,0,0,1,0-1.22l.09-.21a5.51,5.51,0,0,0-7.28-6.91l-.15.07a1.57,1.57,0,0,1-1.22,0,1.55,1.55,0,0,1-.88-.84v0a1.59,1.59,0,0,1,.83-2.08h0l.17-.07a5.38,5.38,0,0,0-.22-9.9l-.31-.12a1.59,1.59,0,0,1-.89-2.06,1.55,1.55,0,0,1,.84-.88,1.57,1.57,0,0,1,1.22,0l.21.08a5.51,5.51,0,0,0,6.9-7.28l-.06-.15a1.57,1.57,0,0,1,0-1.22,1.55,1.55,0,0,1,.84-.88h0a1.59,1.59,0,0,1,2.09.81v0l.08.17a5.33,5.33,0,0,0,4.65,3.16,2.2,2.2,0,0,0,.57.05,5.33,5.33,0,0,0,4.82-3.38l.12-.3a1.6,1.6,0,0,1,3,1.17l-.07.16a5.38,5.38,0,0,0,7.13,6.89l.14-.06a1.6,1.6,0,0,1,2.09.81v0a1.59,1.59,0,0,1-.82,2.09h0l-.17.07a5.35,5.35,0,0,0-3.16,4.65,2.2,2.2,0,0,0-.05.57,5.33,5.33,0,0,0,3.38,4.82l.3.12a1.59,1.59,0,0,1-1.16,3l-.18-.07a5.39,5.39,0,0,0-6.89,7.13l.07.14a1.57,1.57,0,0,1,0,1.22,1.55,1.55,0,0,1-.84.88h0a1.59,1.59,0,0,1-2.09-.82l0,0-.06-.14A5.35,5.35,0,0,0,150.32,150.87Z"/></svg>