<svg id="Layer_1" data-name="Layer 1" xmlns="http://www.w3.org/2000/svg" viewBox="0 0 300 300"><defs><style>.cls-1{fill:#003057;}</style></defs><path class="cls-1" d="M139.62,160.12A15.87,15.87,0,1,0,155.49,176,15.89,15.89,0,0,0,139.62,160.12Zm0,26.73A10.87,10.87,0,1,1,150.49,176,10.88,10.88,0,0,1,139.62,186.85Z"/><path class="cls-1" d="M179.72,164.58H179a4.86,4.86,0,0,1-4.25-2.55,2.25,2.25,0,0,0-.2-.77,4.85,4.85,0,0,1,.95-5.34l.26-.25,0,0a11.42,11.42,0,0,0,0-16.12h0a11.43,11.43,0,0,0-16.14,0l-.24.25a4.91,4.91,0,0,1-8.32-3.47v-.4a11.41,11.41,0,0,0-22.82,0v.74a4.85,4.85,0,0,1-2.55,4.25,2.59,2.59,0,0,0-.77.21,4.84,4.84,0,0,1-5.34-1l-.26-.26h0a11.43,11.43,0,0,0-16.14,0l0,0a11.42,11.42,0,0,0,0,16.1l.25.25a4.83,4.83,0,0,1,1,5.35l-.06.15a4.79,4.79,0,0,1-4.38,3.17h-.4a11.42,11.42,0,0,0,0,22.83h.75a4.91,4.91,0,0,1,3.5,8.29l-.27.27h0a11.41,11.41,0,0,0,0,16.14,0,0,0,0,1,0,0,11.36,11.36,0,0,0,8,3.32h0a11.31,11.31,0,0,0,8.06-3.35l.25-.24a4.81,4.81,0,0,1,5.35-1l.15.06a4.79,4.79,0,0,1,3.17,4.38v.4a11.42,11.42,0,0,0,22.83,0v-.75a4.91,4.91,0,0,1,8.29-3.5l.26.26,0,0a11.3,11.3,0,0,0,8,3.33h0A11.43,11.43,0,0,0,176.1,196l-.25-.24a4.82,4.82,0,0,1-1-5.36v0a4.84,4.84,0,0,1,4.43-2.94h.4a11.41,11.41,0,1,0,0-22.82Zm0,17.82h-.41a9.91,9.91,0,0,0-7,16.83l.27.27a6.42,6.42,0,0,1-9.07,9.08h0l-.29-.28a9.91,9.91,0,0,0-16.81,7v.76a6.42,6.42,0,0,1-12.83,0v-.46a10.21,10.21,0,0,0-17.18-7l-.27.27a6.38,6.38,0,0,1-4.54,1.88h0a6.4,6.4,0,0,1-4.53-1.87l0,0a6.41,6.41,0,0,1,0-9h0l.29-.29a9.91,9.91,0,0,0-7-16.81h-.76a6.42,6.42,0,0,1,0-12.83H100a10.21,10.21,0,0,0,7-17.19l-.26-.26a6.42,6.42,0,0,1,0-9.07l0,0a6.41,6.41,0,0,1,9,0h0l.29.29a9.8,9.8,0,0,0,10.35,2.18,2.51,2.51,0,0,0,.85-.2,9.87,9.87,0,0,0,6-9v-.75a6.41,6.41,0,0,1,12.82,0v.41a9.91,9.91,0,0,0,16.83,7l.27-.27a6.42,6.42,0,0,1,9.07,0h0a6.42,6.42,0,0,1,0,9.06h0l-.28.29a9.78,9.78,0,0,0-2.18,10.35,2.3,2.3,0,0,0,.2.85,9.84,9.84,0,0,0,9,6h.76a6.41,6.41,0,1,1,0,12.82Z"/><path class="cls-1" d="M207.35,99.57a13.15,13.15,0,1,0,7.24,7A13.16,13.16,0,0,0,207.35,99.57Zm2.77,15.21a8.14,8.14,0,1,1-7.57-11.12,8,8,0,0,1,3,.57,8.15,8.15,0,0,1,4.6,10.55Z"/><path class="cls-1" d="M241,119.66a9.54,9.54,0,0,0-5.28-5.1l-.55-.22a3.34,3.34,0,0,1-2.08-2.61,2.32,2.32,0,0,0,.07-.69,3.31,3.31,0,0,1,2-3.18l.27-.12h0a9.6,9.6,0,0,0,5-12.62h0a9.58,9.58,0,0,0-12.63-5l-.24.1A3.4,3.4,0,0,1,223,85.9l.12-.29a9.6,9.6,0,0,0-17.86-7l-.22.55a3.32,3.32,0,0,1-2.61,2.08,3.23,3.23,0,0,0-.69-.07,3.32,3.32,0,0,1-3.19-2l-.11-.27h0a9.59,9.59,0,0,0-12.59-5l0,0a9.61,9.61,0,0,0-5,12.62l.11.26a3.32,3.32,0,0,1-.73,3.68l-.11.12a3.33,3.33,0,0,1-3.6.94l-.3-.12a9.6,9.6,0,0,0-7,17.86l.55.21a3.37,3.37,0,0,1,2.11,3,3.34,3.34,0,0,1-1.95,3.19l-.24.1,0,0a9.6,9.6,0,0,0-5,12.62v0a9.61,9.61,0,0,0,12.63,5l.25-.11a3.34,3.34,0,0,1,3.68.73l.12.11a3.33,3.33,0,0,1,.94,3.6l-.12.3a9.61,9.61,0,0,0,8.93,13.11,9.67,9.67,0,0,0,3.83-.8,9.55,9.55,0,0,0,5.1-5.29l.21-.55a3.41,3.41,0,0,1,6.23-.16l.12.28,0,.07a9.6,9.6,0,0,0,12.56,4.91l.05,0a9.6,9.6,0,0,0,5-12.62l-.11-.25a3.33,3.33,0,0,1,.73-3.69l0,0a3.34,3.34,0,0,1,3.58-.77l.3.12A9.6,9.6,0,0,0,241,119.66Zm-4.52,5.51a4.58,4.58,0,0,1-6,2.59l-.31-.12a8.4,8.4,0,0,0-10.76,11.1l.12.28a4.6,4.6,0,0,1-2.34,6h0a4.59,4.59,0,0,1-6-2.37l0-.06-.11-.25a8.4,8.4,0,0,0-15.45.34l-.22.56a4.6,4.6,0,0,1-5.95,2.6,4.62,4.62,0,0,1-2.6-6l.14-.35a8.65,8.65,0,0,0-11.39-10.82l-.27.12a4.58,4.58,0,0,1-6-2.36v0a4.58,4.58,0,0,1,2.34-6l0,0,.3-.13a8.4,8.4,0,0,0-.34-15.45l-.56-.22a4.59,4.59,0,0,1,3.36-8.55l.36.14a8.64,8.64,0,0,0,10.81-11.38l-.12-.28a4.61,4.61,0,0,1,2.34-6h0a4.62,4.62,0,0,1,3.52-.07,4.57,4.57,0,0,1,2.52,2.44h0l.13.3a8.29,8.29,0,0,0,7.42,4.93,2.26,2.26,0,0,0,.78.1A8.33,8.33,0,0,0,209.73,81l.22-.56a4.6,4.6,0,1,1,8.55,3.37l-.12.3a8.41,8.41,0,0,0,11.11,10.76l.27-.12a4.59,4.59,0,0,1,6.05,2.37h0a4.59,4.59,0,0,1-2.37,6.05h0l-.3.13a8.3,8.3,0,0,0-4.93,7.42,2.33,2.33,0,0,0-.1.78,8.33,8.33,0,0,0,5.27,7.51l.56.22a4.6,4.6,0,0,1,2.59,6Z"/><path class="cls-1" d="M86.29,112.9h0a9,9,0,0,0-11.6,5,8.94,8.94,0,1,0,11.6-5Zm.39,9.77a3.95,3.95,0,0,1-7.29.13,3.91,3.91,0,0,1,0-3,3.94,3.94,0,1,1,7.34,2.89Z"/><path class="cls-1" d="M93.52,145.06h0A6.8,6.8,0,0,0,97,136.11L97,136a1,1,0,0,1,.22-1.15l0,0a1,1,0,0,1,1.11-.24l.18.07a6.8,6.8,0,1,0,5-12.65l-.33-.13a1.07,1.07,0,0,1-.62-.68,2.26,2.26,0,0,0,0-.45,1,1,0,0,1,.59-1l.17-.07h0a6.79,6.79,0,0,0,3.51-8.92v0a6.81,6.81,0,0,0-9-3.51l-.14.06a1,1,0,0,1-1.16-.25,1,1,0,0,1-.25-1.11l.07-.18a6.79,6.79,0,0,0-3.83-8.81,6.82,6.82,0,0,0-8.82,3.84l-.13.33a1,1,0,0,1-.68.61,3.17,3.17,0,0,0-.44,0,1,1,0,0,1-1-.59l-.06-.15v0a6.81,6.81,0,0,0-9-3.52h0A6.8,6.8,0,0,0,69,106.34l.07.14a1.06,1.06,0,0,1-.23,1.15l-.11.12a1,1,0,0,1-1.09.3l-.18-.07a6.8,6.8,0,1,0-5,12.65l.33.13a1.07,1.07,0,0,1,.66,1,1,1,0,0,1-.6,1l-.17.08h0a6.8,6.8,0,0,0-3.51,8.94v0a6.79,6.79,0,0,0,8.93,3.48l.15-.06a1,1,0,0,1,1.15.23,1.14,1.14,0,0,0,.11.11,1,1,0,0,1,.31,1.08l-.07.18a6.8,6.8,0,0,0,12.65,5l.13-.33a1,1,0,0,1,1-.66,1,1,0,0,1,1,.59l.07.17,0,0a6.81,6.81,0,0,0,8.93,3.48Zm-10.19-9.28a6,6,0,0,0-5.43,3.82l-.14.34a1.78,1.78,0,0,1-2.33,1,1.81,1.81,0,0,1-1-.95,1.78,1.78,0,0,1,0-1.38l.09-.23a6.22,6.22,0,0,0-8.21-7.8l-.17.08a1.78,1.78,0,0,1-1.38,0,1.81,1.81,0,0,1-1-.95v0a1.8,1.8,0,0,1,.94-2.35h0l.19-.08a6.08,6.08,0,0,0-.25-11.18L64.3,116a1.79,1.79,0,0,1-.06-3.32,1.78,1.78,0,0,1,1.38,0l.23.09a6.22,6.22,0,0,0,7.79-8.22l-.07-.17A1.78,1.78,0,0,1,74.5,102h0a1.79,1.79,0,0,1,2.36.91v0l.08.19a6,6,0,0,0,5.25,3.57,2.35,2.35,0,0,0,.65.06,6,6,0,0,0,5.43-3.82l.14-.33a1.8,1.8,0,0,1,2.33-1,1.86,1.86,0,0,1,1,1,1.76,1.76,0,0,1,0,1.37l-.07.19a6.07,6.07,0,0,0,8,7.77l.16-.07a1.81,1.81,0,0,1,2.36.92v0a1.8,1.8,0,0,1-.93,2.36h0l-.19.09a6,6,0,0,0-3.56,5.25,2.73,2.73,0,0,0-.07.64,6.07,6.07,0,0,0,3.82,5.44l.34.13a1.8,1.8,0,0,1-1.31,3.35l-.2-.08a6.08,6.08,0,0,0-7.77,8l.07.17a1.76,1.76,0,0,1,0,1.37,1.79,1.79,0,0,1-1,1h0a1.81,1.81,0,0,1-1.37,0,1.78,1.78,0,0,1-1-.95l0,0-.07-.16A6.06,6.06,0,0,0,83.33,135.78Z"/></svg>