<svg id="Layer_1" data-name="Layer 1" xmlns="http://www.w3.org/2000/svg" viewBox="0 0 300 300"><defs><style>.cls-1{fill:#ff6720;}</style></defs><path class="cls-1" d="M162.18,155a1.4,1.4,0,0,0-.44-.31l-5-2.26,9.84-24a1.62,1.62,0,0,0-.88-2.11h0a1.65,1.65,0,0,0-2.11.88l-9.8,23.88-3.38-1.52a1.48,1.48,0,0,0-1.2,0L146,151l-9.76-23.8a1.64,1.64,0,0,0-2.11-.88,1.6,1.6,0,0,0-.88.87,1.62,1.62,0,0,0,0,1.24L143,152.3l-5.19,2.34a1.35,1.35,0,0,0-.44.31,1.45,1.45,0,0,0-.59,1.17l0,12.8a1.42,1.42,0,0,0,.8,1.3L149,175.9a1.51,1.51,0,0,0,.75.15h.14a1.52,1.52,0,0,0,.63-.14l11.41-5.41a1.44,1.44,0,0,0,.83-1.31V156.12A1.45,1.45,0,0,0,162.18,155Zm-13.73,7.27v10.43l-9-4.47V158.05ZM158.2,156l-8.42,3.93L141.37,156l8.41-3.78Zm1.91,2.08v10.39l-9,4.26V162.22Z"/><path class="cls-1" d="M130.44,131V120.49l9-4.18V126.7l-2,.94,1,2.46,2.79-1.32a1.48,1.48,0,0,0,.83-1.32V114.39a1.42,1.42,0,0,0-.6-1.17,1.14,1.14,0,0,0-.44-.31l-11.36-5.1a1.44,1.44,0,0,0-1.2,0l-11.34,5.1a1.43,1.43,0,0,0-.44.3,1.47,1.47,0,0,0-.59,1.18l0,12.8a1.46,1.46,0,0,0,.8,1.3l11.42,5.68a1.47,1.47,0,0,0,.75.15h.15a1.38,1.38,0,0,0,.62-.15l4.28-2-1-2.47Zm-2.66-10.47v10.43l-9-4.48,0-10.12Zm9.76-6.25-8.43,3.93-8.41-3.93,8.41-3.78Z"/><path class="cls-1" d="M183.27,113.21a1.43,1.43,0,0,0-.44-.3l-11.34-5.1a1.44,1.44,0,0,0-1.2,0l-11.36,5.1a1.14,1.14,0,0,0-.44.31,1.42,1.42,0,0,0-.6,1.17v13.07a1.48,1.48,0,0,0,.83,1.32l2.79,1.32,1-2.46-2-.94V116.31l9,4.18V131l-2.69-1.27-1,2.47,4.28,2a1.38,1.38,0,0,0,.62.15h.15a1.39,1.39,0,0,0,.75-.15l11.42-5.68a1.46,1.46,0,0,0,.8-1.3l0-12.8A1.47,1.47,0,0,0,183.27,113.21Zm-4,1-8.41,3.93-8.43-3.93,8.43-3.78Zm1.92,12.2-9,4.48V120.49l9-4.17Z"/><path class="cls-1" d="M186.33,73H113.54a12.13,12.13,0,0,0-12.12,12.13V215.87A12.13,12.13,0,0,0,113.54,228h72.79a12.14,12.14,0,0,0,12.13-12.13V85.13A12.14,12.14,0,0,0,186.33,73Zm7.13,142.87a7.14,7.14,0,0,1-7.13,7.13H113.54a7.13,7.13,0,0,1-7.12-7.13V198.46h87Zm0-20.41h-87V85.13A7.13,7.13,0,0,1,113.54,78h72.79a7.14,7.14,0,0,1,7.13,7.13Z"/><path class="cls-1" d="M149.94,216.51a6.06,6.06,0,1,0-6.06-6.06A6.07,6.07,0,0,0,149.94,216.51Zm0-9.12a3.06,3.06,0,1,1-3.06,3.06A3.06,3.06,0,0,1,149.94,207.39Z"/></svg>