<svg id="Layer_1" data-name="Layer 1" xmlns="http://www.w3.org/2000/svg" viewBox="0 0 300 300"><defs><style>.cls-1{fill:#003057;}</style></defs><path class="cls-1" d="M227.25,128.49l.06-.11a2.23,2.23,0,0,0,.13-.44s0-.1,0-.15,0-.22,0-.33v0s0-.09,0-.14l0-.29a1.17,1.17,0,0,0-.05-.2,1.83,1.83,0,0,0-.08-.25,1.19,1.19,0,0,0-.08-.2l-.12-.22a2.14,2.14,0,0,0-.13-.19l-.06-.09L200.29,93.1l0,0a3.63,3.63,0,0,0-.28-.27l-.11-.1h0a2.52,2.52,0,0,0-.94-.44l-.13,0a2.58,2.58,0,0,0-.38,0H99.06a2.43,2.43,0,0,0-1,.26l-.15.08c-.08,0-.16.09-.24.15l-.07.06-.15.13a3.2,3.2,0,0,0-.25.27l-.06.07L73,125.93l0,0s-.07.11-.11.17a2.53,2.53,0,0,0-.12.23,1.46,1.46,0,0,0-.07.19,2,2,0,0,0-.08.26,1.06,1.06,0,0,0,0,.19,2.58,2.58,0,0,0,0,.29s0,.07,0,.11,0,0,0,.07a1.53,1.53,0,0,0,0,.3c0,.06,0,.12,0,.17a2.81,2.81,0,0,0,.1.31s0,.09,0,.13a3.17,3.17,0,0,0,.21.41l.09.1a2.23,2.23,0,0,0,.19.24l75.33,77.91,0,0a1.93,1.93,0,0,0,.35.29l.07,0a2,2,0,0,0,.32.18l.13.06a1.92,1.92,0,0,0,.32.09.5.5,0,0,0,.13,0,2.3,2.3,0,0,0,.45,0h.06a2,2,0,0,0,.43,0l.11,0,.32-.1.14-.06.28-.16.12-.07a2.52,2.52,0,0,0,.35-.3l74.67-77.91A1.3,1.3,0,0,0,227,129c0-.05.09-.1.13-.16A2.38,2.38,0,0,0,227.25,128.49ZM99.1,98.9l19.16,26H80Zm71.11,31-20.07,67.27-23.42-67.27Zm-41.89-5L148.7,98.78l19.83,26.14Zm25.44-27.74h39.56l-19.76,26.1Zm-30.5,26.1-19.21-26.1H143.6Zm-1.84,6.64,22.81,65.5-63.34-65.5Zm54,0h43.72l-63.46,66.2Zm3.17-5,19.83-26.19,21.32,26.19Z"/></svg>