<svg id="Layer_1" data-name="Layer 1" xmlns="http://www.w3.org/2000/svg" viewBox="0 0 300 300"><defs><style>.cls-1{fill:#ff6720;}</style></defs><path class="cls-1" d="M232.71,205.27l-32.13-25.1a2.45,2.45,0,0,0-1.84-.51,2.51,2.51,0,0,0-1.67.94l-1.37,1.75-12.47-9.73a1.53,1.53,0,0,0-.21-.14,63.11,63.11,0,1,0-8.51,10.88c.07.06.12.13.19.18l12.46,9.74-1,1.29a2.5,2.5,0,0,0,.43,3.51l32.13,25.1a2.52,2.52,0,0,0,1.54.53l.3,0a2.51,2.51,0,0,0,1.67-.94l10.91-14A2.5,2.5,0,0,0,232.71,205.27ZM93.76,185.19a3.89,3.89,0,0,0,.16-.41l9-31.24.34,0a9.25,9.25,0,0,0,7.92-4.48l26.15,9.21a2.5,2.5,0,0,0,2.65-.64l23.18-24.59a9.18,9.18,0,0,0,3.16.57,9.27,9.27,0,1,0-7.26-3.52L137.46,153l-24.93-8.79A9.26,9.26,0,1,0,98.16,152l-8.55,29.62a58,58,0,1,1,4.15,3.55ZM99,144.3a4.26,4.26,0,1,1,4.25,4.26A4.26,4.26,0,0,1,99,144.3Zm63.05-19.93a4.26,4.26,0,1,1,4.26,4.26A4.26,4.26,0,0,1,162.07,124.37Zm26.78,63.88-9.1-7.11,2.37-3,9.1,7.11Zm31,29.45-28.19-22,7.83-10,28.19,22Z"/></svg>