<svg id="Layer_1" data-name="Layer 1" xmlns="http://www.w3.org/2000/svg" viewBox="0 0 300 300"><defs><style>.cls-1{fill:#003057;}</style></defs><path class="cls-1" d="M160.36,152.7H139.64a2.5,2.5,0,0,1,0-5h20.72a2.5,2.5,0,0,1,0,5Z"/><path class="cls-1" d="M118.86,152.7H98.14a2.5,2.5,0,1,1,0-5h20.72a2.5,2.5,0,1,1,0,5Z"/><path class="cls-1" d="M201.86,152.7H181.14a2.5,2.5,0,0,1,0-5h20.72a2.5,2.5,0,0,1,0,5Z"/><path class="cls-1" d="M160.36,192.7H139.64a2.5,2.5,0,0,1,0-5h20.72a2.5,2.5,0,0,1,0,5Z"/><path class="cls-1" d="M118.86,192.7H98.14a2.5,2.5,0,1,1,0-5h20.72a2.5,2.5,0,1,1,0,5Z"/><path class="cls-1" d="M201.86,192.7H181.14a2.5,2.5,0,0,1,0-5h20.72a2.5,2.5,0,0,1,0,5Z"/><path class="cls-1" d="M230,95.36A11.38,11.38,0,0,0,218.64,84h-8.8a12.9,12.9,0,0,0-4-6.79A10.3,10.3,0,0,0,197.76,75a12.45,12.45,0,0,0-10.35,9H112.84a12.9,12.9,0,0,0-4-6.79A10.3,10.3,0,0,0,100.76,75a12.45,12.45,0,0,0-10.35,9h-9A11.38,11.38,0,0,0,70,95.36v5.28a10.84,10.84,0,0,0,.13,1.62A2.36,2.36,0,0,0,70,103v109.7a15.17,15.17,0,0,0,15.16,15.15H214.84A15.17,15.17,0,0,0,230,212.71V103a2.36,2.36,0,0,0-.13-.75,10.84,10.84,0,0,0,.13-1.62ZM198.31,80a5.52,5.52,0,0,1,4.32,1,7,7,0,0,1,2,3H192.8A7.13,7.13,0,0,1,198.31,80Zm-97,0a5.53,5.53,0,0,1,4.32,1,7,7,0,0,1,2,3H95.8A7.13,7.13,0,0,1,101.31,80ZM225,212.71a10.17,10.17,0,0,1-10.16,10.15H85.16A10.17,10.17,0,0,1,75,212.71V110.05a11.33,11.33,0,0,0,6.36,2H218.64a11.33,11.33,0,0,0,6.36-2Zm0-112.07a6.36,6.36,0,0,1-6.36,6.36H81.36A6.36,6.36,0,0,1,75,100.64V95.36A6.36,6.36,0,0,1,81.36,89H89.8a13.32,13.32,0,0,0,7.57,11.21,2.39,2.39,0,0,0,1.15.29,2.5,2.5,0,0,0,1.16-4.71A8.61,8.61,0,0,1,94.8,89h92a13.32,13.32,0,0,0,7.57,11.21,2.39,2.39,0,0,0,1.15.29,2.5,2.5,0,0,0,1.16-4.71A8.61,8.61,0,0,1,191.8,89h26.84A6.36,6.36,0,0,1,225,95.36Z"/></svg>