<svg id="Layer_1" data-name="Layer 1" xmlns="http://www.w3.org/2000/svg" viewBox="0 0 300 300"><defs><style>.cls-1{fill:#ff6720;}</style></defs><path class="cls-1" d="M139.57,140.51a.29.29,0,0,0-.16-.48l-4.81-.69a.31.31,0,0,1-.21-.16l-2.15-4.36a.29.29,0,0,0-.51,0l-2.15,4.36a.31.31,0,0,1-.21.16l-4.81.69a.28.28,0,0,0-.15.48l3.48,3.4a.31.31,0,0,1,.08.25l-.82,4.79a.27.27,0,0,0,.4.29l4.31-2.26a.3.3,0,0,1,.26,0l4.3,2.26a.28.28,0,0,0,.41-.29l-.82-4.79a.25.25,0,0,1,.08-.25Z"/><path class="cls-1" d="M124.45,116.43a.29.29,0,0,0-.16-.48l-4.81-.7a.27.27,0,0,1-.21-.15l-2.15-4.36a.29.29,0,0,0-.51,0l-2.15,4.36a.27.27,0,0,1-.21.15l-4.81.7a.28.28,0,0,0-.15.48l3.48,3.4a.3.3,0,0,1,.08.24l-.83,4.79a.29.29,0,0,0,.41.3l4.3-2.26a.32.32,0,0,1,.27,0l4.3,2.26a.28.28,0,0,0,.41-.3l-.83-4.79a.27.27,0,0,1,.09-.24Z"/><path class="cls-1" d="M112.81,140.51a.28.28,0,0,0-.15-.48l-4.81-.69a.31.31,0,0,1-.21-.16l-2.15-4.36a.29.29,0,0,0-.51,0l-2.15,4.36a.31.31,0,0,1-.21.16l-4.81.69a.29.29,0,0,0-.16.48l3.48,3.4a.25.25,0,0,1,.08.25l-.82,4.79a.28.28,0,0,0,.41.29l4.3-2.26a.3.3,0,0,1,.26,0l4.31,2.26a.27.27,0,0,0,.4-.29l-.82-4.79a.31.31,0,0,1,.08-.25Z"/><path class="cls-1" d="M139.41,90l-4.81-.7a.27.27,0,0,1-.21-.15l-2.15-4.36a.29.29,0,0,0-.51,0l-2.15,4.36a.27.27,0,0,1-.21.15l-4.81.7a.28.28,0,0,0-.15.48l3.48,3.39a.32.32,0,0,1,.08.25l-.82,4.79a.28.28,0,0,0,.4.3L131.86,97a.3.3,0,0,1,.26,0l4.3,2.27a.29.29,0,0,0,.41-.3L136,94.14a.26.26,0,0,1,.08-.25l3.48-3.39A.28.28,0,0,0,139.41,90Z"/><path class="cls-1" d="M84.9,140.51a.29.29,0,0,0-.16-.48l-4.81-.69a.31.31,0,0,1-.21-.16l-2.15-4.36a.28.28,0,0,0-.5,0l-2.16,4.36a.31.31,0,0,1-.21.16l-4.81.69a.28.28,0,0,0-.15.48l3.48,3.4a.31.31,0,0,1,.08.25L72.48,149a.28.28,0,0,0,.41.29l4.3-2.26a.3.3,0,0,1,.26,0l4.3,2.26a.28.28,0,0,0,.41-.29l-.82-4.79a.25.25,0,0,1,.08-.25Z"/><path class="cls-1" d="M97.69,116.43a.28.28,0,0,0-.15-.48l-4.81-.7a.27.27,0,0,1-.21-.15l-2.16-4.36a.28.28,0,0,0-.5,0l-2.15,4.36a.27.27,0,0,1-.21.15l-4.81.7a.29.29,0,0,0-.16.48l3.48,3.4a.24.24,0,0,1,.08.24l-.82,4.79a.28.28,0,0,0,.41.3L90,122.9a.3.3,0,0,1,.26,0l4.31,2.26a.28.28,0,0,0,.4-.3l-.82-4.79a.3.3,0,0,1,.08-.24Z"/><path class="cls-1" d="M112.81,90.5a.28.28,0,0,0-.15-.48l-4.81-.7a.27.27,0,0,1-.21-.15l-2.15-4.36a.29.29,0,0,0-.51,0l-2.15,4.36a.27.27,0,0,1-.21.15l-4.81.7a.28.28,0,0,0-.16.48l3.48,3.39a.26.26,0,0,1,.08.25l-.82,4.79a.29.29,0,0,0,.41.3L105.1,97a.3.3,0,0,1,.26,0l4.31,2.27a.28.28,0,0,0,.4-.3l-.82-4.79a.32.32,0,0,1,.08-.25Z"/><path class="cls-1" d="M168.42,195.89h-8.67a4.22,4.22,0,0,0-4.21,4.21V225a4.22,4.22,0,0,0,4.21,4.22h8.67a4.22,4.22,0,0,0,4.21-4.22V200.1A4.22,4.22,0,0,0,168.42,195.89Zm0,29.1,0,0-8.69,0,0-24.91,8.69,0Z"/><path class="cls-1" d="M191.65,187h-8.07a4.52,4.52,0,0,0-4.51,4.52v33.15a4.52,4.52,0,0,0,4.51,4.52h8.07a4.52,4.52,0,0,0,4.51-4.52V191.54A4.52,4.52,0,0,0,191.65,187Zm.32,37.67a.32.32,0,0,1-.32.32h-8.07a.32.32,0,0,1-.32-.32V191.54a.32.32,0,0,1,.32-.32h8.07a.32.32,0,0,1,.32.32Z"/><path class="cls-1" d="M214.84,175.84h-7.39a4.85,4.85,0,0,0-4.85,4.85v43.67a4.85,4.85,0,0,0,4.85,4.85h7.39a4.85,4.85,0,0,0,4.85-4.85V180.69A4.85,4.85,0,0,0,214.84,175.84Zm.66,48.52a.65.65,0,0,1-.66.65h-7.39a.65.65,0,0,1-.66-.65V180.69a.65.65,0,0,1,.66-.66h7.39a.65.65,0,0,1,.66.66Z"/><path class="cls-1" d="M237.94,159.16h-6.53a5.29,5.29,0,0,0-5.28,5.29v59.47a5.29,5.29,0,0,0,5.28,5.29h6.53a5.28,5.28,0,0,0,5.28-5.29V164.45A5.28,5.28,0,0,0,237.94,159.16ZM239,223.92a1.09,1.09,0,0,1-1.09,1.09h-6.53a1.09,1.09,0,0,1-1.09-1.09V164.45a1.09,1.09,0,0,1,1.09-1.09h6.53a1.09,1.09,0,0,1,1.09,1.09Z"/><path class="cls-1" d="M218.54,160.39,233,144.46a7.69,7.69,0,0,0,2.32.36,7.83,7.83,0,1,0-5.88-2.68l-13.08,14.42-14.94-4.89a6.35,6.35,0,0,0-12.69.48,6.27,6.27,0,0,0,1.74,4.36l-5.27,18.64-12-10.08a2.11,2.11,0,0,0-2.8.08l-5.88,5.58a6.52,6.52,0,1,0,4.17,6.08,6.41,6.41,0,0,0-.94-3.36l4.18-4,13,11a2.12,2.12,0,0,0,2,.4,2.09,2.09,0,0,0,1.4-1.43l5.92-21a6.42,6.42,0,0,0,6.07-2.74l16,5.25A2.11,2.11,0,0,0,218.54,160.39Zm16.77-27a3.61,3.61,0,1,1-3.62,3.61A3.61,3.61,0,0,1,235.31,133.4Zm-73.14,45.74a2.33,2.33,0,1,1,2.33-2.33A2.33,2.33,0,0,1,162.17,179.14Zm32.91-24.82a2.17,2.17,0,1,1,2.16-2.17A2.17,2.17,0,0,1,195.08,154.32Z"/><path class="cls-1" d="M181.5,150a2.5,2.5,0,0,0-2.5-2.5H154a2.5,2.5,0,0,0,0,5h25A2.5,2.5,0,0,0,181.5,150Z"/><path class="cls-1" d="M147,171.5a2.5,2.5,0,0,0,0-5H64a2.49,2.49,0,0,0-1,.22A73.64,73.64,0,0,1,61.5,152v-6A73.58,73.58,0,0,1,135,72.5h6a73.27,73.27,0,0,1,48.08,18H154a2.5,2.5,0,0,0,0,5h40a2.48,2.48,0,0,0,.27,0,73.86,73.86,0,0,1,10.47,14H154a2.5,2.5,0,0,0,0,5h53a2.2,2.2,0,0,0,.36,0,72.54,72.54,0,0,1,5,14H154a2.5,2.5,0,0,0,0,5h59.42a73.84,73.84,0,0,1,.92,7.66,2.5,2.5,0,0,0,5-.33A78.68,78.68,0,0,0,141,67.5h-6A78.58,78.58,0,0,0,56.5,146v6A78.58,78.58,0,0,0,135,230.5h6a2.5,2.5,0,0,0,0-5h-6a73.12,73.12,0,0,1-45.7-16H147a2.5,2.5,0,0,0,0-5H86a2.47,2.47,0,0,0-1.68.66,74.1,74.1,0,0,1-11.9-14.66H147a2.5,2.5,0,0,0,0-5H71a2.5,2.5,0,0,0-1.22.33,72.61,72.61,0,0,1-5.63-14.33Z"/></svg>