<svg id="Layer_1" data-name="Layer 1" xmlns="http://www.w3.org/2000/svg" viewBox="0 0 300 300"><defs><style>.cls-1{fill:#ff6720;}</style></defs><path class="cls-1" d="M133.37,163.14a16,16,0,0,1-6-1.2,1.74,1.74,0,0,0-2.34,1.08l-.21.62A1.94,1.94,0,0,0,126,166a18.9,18.9,0,0,0,7.46,1.45c7.72,0,13.33-5.15,13.33-12.25a10.27,10.27,0,0,0-5.16-9.24,14.88,14.88,0,0,0-7.68-1.92c-.32,0-.61,0-.87,0H133a1.4,1.4,0,0,1-1.38-1.61l.83-5.52a1.42,1.42,0,0,1,1.39-1.2h10.31a1.9,1.9,0,0,0,1.91-1.91v-.67a1.92,1.92,0,0,0-1.92-1.92H130.46a1.93,1.93,0,0,0-1.91,1.67l-1.8,13.3a1.92,1.92,0,0,0,.46,1.51,1.9,1.9,0,0,0,1.42.65h.18c1-.09,1.87-.14,2.77-.14,6.3,0,9.8,2.68,9.86,7.54S137.38,163.14,133.37,163.14Z"/><path class="cls-1" d="M167.6,136a19.27,19.27,0,0,1,5.87.82,1.86,1.86,0,0,0,.61.1,2.09,2.09,0,0,0,2-1.49l.05-.17a2.06,2.06,0,0,0-1.38-2.55,24.63,24.63,0,0,0-7-1c-11.32,0-19,7.3-19,18.15,0,5.31,1.79,10.08,4.91,13.09,3.28,3.13,7.57,4.65,13.14,4.65a32.4,32.4,0,0,0,9.46-1.49,2,2,0,0,0,1.43-2V150.57a2.05,2.05,0,0,0-2.05-2h-7.82a2.05,2.05,0,1,0,0,4.1h3.45a1.55,1.55,0,0,1,1.55,1.55v7.27a1.54,1.54,0,0,1-1.17,1.5,20,20,0,0,1-4.55.45c-8.09,0-13.12-5.27-13.12-13.74S159.16,136,167.6,136Z"/><path class="cls-1" d="M88.14,154.83h18a7,7,0,0,0,5.37-2.18c2.33-2.54,2.21-6.35,2.16-7.09V121c0-6.21,7.31-7.24,8.14-7.34h16.93a1.84,1.84,0,0,0,0-3.67h-7.28V96a7,7,0,0,0-1.44-5.21c-1.58-1.91-4.18-2.88-7.74-2.88h-9.49a7.22,7.22,0,1,0,0,3.67h9.49c2.36,0,4,.52,4.89,1.52a3.37,3.37,0,0,1,.66,2.44,2,2,0,0,0,0,.34V110h-6.28a17.24,17.24,0,0,0-5.59,1.7A10,10,0,0,0,110,121v11.52H95.93l-.2,0h-.46a5.64,5.64,0,0,1-3.71-1.2,5.15,5.15,0,0,1-1.42-4v-8.49a7.24,7.24,0,1,0-3.67-.09v8.58a8.66,8.66,0,0,0,2.66,6.77,9.38,9.38,0,0,0,6.15,2.12c.35,0,.61,0,.75,0h14v9.41c0,.05,0,.1,0,.15.06.79,0,3.12-1.21,4.4a3.41,3.41,0,0,1-2.66,1h-18a7.22,7.22,0,1,0,0,3.65ZM109.4,89.72a3.55,3.55,0,1,1-3.55-3.55A3.55,3.55,0,0,1,109.4,89.72ZM92,111.87a3.55,3.55,0,1,1-3.55-3.55A3.55,3.55,0,0,1,92,111.87ZM81.17,156.55A3.55,3.55,0,1,1,84.72,153,3.55,3.55,0,0,1,81.17,156.55Z"/><path class="cls-1" d="M155,211.07c0-.06,0-.11,0-.17V193a7,7,0,0,0-2.18-5.37,10,10,0,0,0-6.5-2.18l-.6,0H121.2c-6.21,0-7.25-7.31-7.34-8.15V160.44a1.84,1.84,0,0,0-3.67,0v7.28H96.13a5,5,0,0,0-.85-.06,6.78,6.78,0,0,0-4.36,1.5C89,170.74,88,173.34,88,176.9v9.49a7.22,7.22,0,1,0,3.67,0V176.9c0-2.36.52-4.05,1.52-4.89a3.17,3.17,0,0,1,2-.68,3.8,3.8,0,0,1,.4,0,1.87,1.87,0,0,0,.34,0h14.18v6.1c0,.06,0,.12,0,.18a17.24,17.24,0,0,0,1.7,5.59,10,10,0,0,0,9.3,5.92h11.52v14.11c0,.06,0,.13,0,.2a6,6,0,0,1-1.18,4.17,5.19,5.19,0,0,1-4,1.42H119a7.24,7.24,0,1,0-.09,3.67h8.58a8.62,8.62,0,0,0,6.76-2.66,9.71,9.71,0,0,0,2.1-6.9v-14H146l.4,0a6.27,6.27,0,0,1,4,1.23,3.38,3.38,0,0,1,1,2.66V210.9a1,1,0,0,0,0,.17,7.22,7.22,0,1,0,3.65,0Zm1.72,7a3.55,3.55,0,1,1-3.55-3.55A3.56,3.56,0,0,1,156.71,218ZM93.42,193.35a3.55,3.55,0,1,1-3.55-3.54A3.55,3.55,0,0,1,93.42,193.35Zm22.15,17.41a3.55,3.55,0,1,1-3.54-3.55A3.55,3.55,0,0,1,115.57,210.76Z"/><path class="cls-1" d="M218.83,138.83a7.25,7.25,0,0,0-7,5.39h-18a7,7,0,0,0-5.37,2.18c-2.33,2.54-2.21,6.35-2.16,7.09V178c0,6.21-7.31,7.25-8.14,7.34H161.23a1.84,1.84,0,0,0,0,3.67h7.28v14.06a7,7,0,0,0,1.44,5.21c1.58,1.91,4.18,2.88,7.74,2.88h9.49a7.22,7.22,0,1,0,0-3.67h-9.49c-2.36,0-4.05-.52-4.89-1.52a3.37,3.37,0,0,1-.66-2.44,2,2,0,0,0,0-.34V189h6.28a17.24,17.24,0,0,0,5.59-1.7A10,10,0,0,0,190,178V166.49h14.3a2.84,2.84,0,0,1,.46,0,5.64,5.64,0,0,1,3.71,1.2,5.15,5.15,0,0,1,1.42,4v8.49a7.24,7.24,0,1,0,3.67.09v-8.58a8.66,8.66,0,0,0-2.66-6.77,9.39,9.39,0,0,0-6.16-2.12c-.34,0-.6,0-.74,0H190v-9.41s0-.1,0-.15c-.06-.79,0-3.12,1.21-4.4a3.41,3.41,0,0,1,2.66-1h18a7.21,7.21,0,1,0,7-9Zm0,10.76a3.55,3.55,0,1,1,3.55-3.55A3.55,3.55,0,0,1,218.83,149.59ZM190.6,209.34a3.55,3.55,0,1,1,3.55,3.54A3.55,3.55,0,0,1,190.6,209.34ZM208,187.18a3.55,3.55,0,1,1,3.55,3.55A3.55,3.55,0,0,1,208,187.18Z"/><path class="cls-1" d="M145.33,88.93a1,1,0,0,0,0,.17V107a7,7,0,0,0,2.18,5.37,10,10,0,0,0,6.49,2.18l.6,0h24.52c6.22,0,7.25,7.31,7.35,8.15v16.92a1.83,1.83,0,0,0,3.66,0v-7.28h14.07a5,5,0,0,0,.85.06,6.8,6.8,0,0,0,4.36-1.5c1.91-1.58,2.88-4.18,2.88-7.74v-9.49a7.22,7.22,0,1,0-3.67,0v9.49c0,2.36-.53,4.05-1.52,4.89a3.17,3.17,0,0,1-2,.68,3.57,3.57,0,0,1-.4,0,2,2,0,0,0-.35,0H190.12v-6.1a1.09,1.09,0,0,0,0-.18,17.08,17.08,0,0,0-1.69-5.59,10,10,0,0,0-9.31-5.92H167.59V96.72a1.41,1.41,0,0,0,0-.2,6.14,6.14,0,0,1,1.19-4.17,5.19,5.19,0,0,1,4-1.42h8.49a7.22,7.22,0,1,0,.08-3.67h-8.57A8.64,8.64,0,0,0,166,89.92a9.69,9.69,0,0,0-2.09,6.9v14h-9.56l-.41,0a6.29,6.29,0,0,1-4-1.23,3.42,3.42,0,0,1-1-2.66v-18a7.22,7.22,0,1,0-3.65,0Zm-1.73-7a3.55,3.55,0,1,1,3.55,3.55A3.56,3.56,0,0,1,143.6,82Zm63.3,24.69a3.55,3.55,0,1,1,3.54,3.54A3.55,3.55,0,0,1,206.9,106.65ZM184.74,89.24a3.55,3.55,0,1,1,3.55,3.55A3.56,3.56,0,0,1,184.74,89.24Z"/></svg>