<svg id="Layer_1" data-name="Layer 1" xmlns="http://www.w3.org/2000/svg" viewBox="0 0 300 300"><defs><style>.cls-1{fill:#003057;}</style></defs><path class="cls-1" d="M95.21,134.27l3.32,7.22a1,1,0,1,1-1.78.82l-2.41-5.22L84.2,160.42a1,1,0,0,1-1.27.52l-15.58-6.31-1,2.56a1,1,0,0,1-1.26.55h0a1,1,0,0,1-.56-1.29L65.9,153a1,1,0,0,1,1.28-.54l15.6,6.32,9.71-22.34L87.78,139a1,1,0,0,1-.93-1.74l6.75-3.61,0,0a1,1,0,0,1,1.19.27A1,1,0,0,1,95.21,134.27Z"/><path class="cls-1" d="M248.79,152.41a1.62,1.62,0,0,0,0-.22,2,2,0,0,0-.05-.24,2.1,2.1,0,0,0-.06-.24,1.89,1.89,0,0,0-.09-.21,1,1,0,0,0-.11-.23l0-.05-30.3-51.09a2.48,2.48,0,0,0-.59-.66,2.5,2.5,0,0,0-2.31-1.54h0l-47.1.34c-.31-10.25-7.93-17.9-18-17.9-11,0-19,7.62-19.2,18.17l-46.81.34a2.1,2.1,0,0,0-.61.09,2.43,2.43,0,0,0-1.66,1.16l-30.3,51.09,0,0a2.06,2.06,0,0,0-.12.26,1.54,1.54,0,0,0-.08.19,1.83,1.83,0,0,0-.06.25,1.74,1.74,0,0,0-.05.22,1.77,1.77,0,0,0,0,.23,2.26,2.26,0,0,0,0,.26,1.38,1.38,0,0,0,0,.2,1.6,1.6,0,0,0,0,.29.08.08,0,0,0,0,0c.07.24,7.42,24.63,32.7,24.63s32.63-24.39,32.7-24.63a.08.08,0,0,0,0,0,1.47,1.47,0,0,0,.05-.29,1.38,1.38,0,0,0,0-.2,2.26,2.26,0,0,0,0-.26,1.62,1.62,0,0,0,0-.22,2,2,0,0,0,0-.24,2.1,2.1,0,0,0-.06-.24,1.89,1.89,0,0,0-.09-.21,1,1,0,0,0-.11-.23l0-.05L88.36,103.85l43.17-.32c1.65,6,6.15,10,8.34,11.62v81.59c-7.9,2.39-29.93,10-28,20.82a2.5,2.5,0,0,0,2.47,2.07h71.14a2.49,2.49,0,0,0,2.07-1.1,7,7,0,0,0,.43-6.21c-2.2-6-11.26-11.49-27-16.17V114.33a24.75,24.75,0,0,0,6.61-11.06l44.58-.32-28.63,48.27,0,0a2.06,2.06,0,0,0-.12.26,1.54,1.54,0,0,0-.08.19,1.83,1.83,0,0,0-.06.25,1.74,1.74,0,0,0-.05.22,1.77,1.77,0,0,0,0,.23,2.26,2.26,0,0,0,0,.26,1.38,1.38,0,0,0,0,.2,1.6,1.6,0,0,0,0,.29.08.08,0,0,0,0,0c.07.24,7.42,24.63,32.7,24.63s32.63-24.39,32.7-24.63a.08.08,0,0,0,0,0,1.47,1.47,0,0,0,0-.29,1.38,1.38,0,0,0,0-.2A2.26,2.26,0,0,0,248.79,152.41ZM84,172.83c-19,0-26-15.84-27.57-20L84,106.3l27.57,46.49C110.05,157,103,172.83,84,172.83Zm78.36-69.52a21,21,0,0,1-5.47,8,2.51,2.51,0,0,0-.9,1.92V198a2.49,2.49,0,0,0,1.81,2.4c20.19,5.77,24.46,11.27,25.36,13.37a3.7,3.7,0,0,1,.25.84H117.15c2.56-5,16.11-10.86,25.89-13.6a2.51,2.51,0,0,0,1.83-2.41V113.83a2.49,2.49,0,0,0-1.21-2.14,18.56,18.56,0,0,1-6.87-8.19,12.73,12.73,0,0,1-.88-4.6c0-.13,0-.26,0-.4.2-7.75,6-13.13,14.2-13.13s12.73,6.56,13,12.93c0,.2,0,.4,0,.6A13.23,13.23,0,0,1,162.36,103.31ZM216,172.83c-19,0-26.05-15.84-27.57-20L216,106.3l27.57,46.49C242.05,157,235,172.83,216,172.83Z"/><path class="cls-1" d="M232.21,162.22l3.32-7.22a1,1,0,1,0-1.78-.82l-2.41,5.22L221.2,136.07a1,1,0,0,0-1.27-.52l-15.58,6.31-1-2.56a1,1,0,0,0-1.26-.55h0a1,1,0,0,0-.56,1.29l1.41,3.47a1,1,0,0,0,1.28.54l15.6-6.32,9.71,22.34-4.71-2.53a1,1,0,0,0-.93,1.74l6.75,3.61,0,0a1,1,0,0,0,1.19-.27A1,1,0,0,0,232.21,162.22Z"/></svg>