<svg id="Layer_1" data-name="Layer 1" xmlns="http://www.w3.org/2000/svg" viewBox="0 0 300 300"><defs><style>.cls-1{fill:#003057;}</style></defs><path class="cls-1" d="M150,135.49A14.51,14.51,0,1,0,164.51,150,14.53,14.53,0,0,0,150,135.49Zm0,24.45a9.94,9.94,0,1,1,9.94-9.94A10,10,0,0,1,150,159.94Z"/><path class="cls-1" d="M186.68,139.56H186a4.4,4.4,0,0,1-3.88-2.32,2.4,2.4,0,0,0-.19-.71,4.42,4.42,0,0,1,.87-4.88l.23-.23,0,0a10.43,10.43,0,0,0,0-14.74h0a10.45,10.45,0,0,0-14.76,0l-.23.22a4.49,4.49,0,0,1-7.6-3.17v-.37a10.44,10.44,0,0,0-20.88,0V114a4.42,4.42,0,0,1-2.32,3.88,2.4,2.4,0,0,0-.71.19,4.43,4.43,0,0,1-4.88-.87l-.25-.25h0a10.45,10.45,0,0,0-14.76,0l0,0a10.44,10.44,0,0,0,0,14.73l.22.23a4.39,4.39,0,0,1,.89,4.89.69.69,0,0,0,0,.13,4.4,4.4,0,0,1-4,2.91h-.37a10.44,10.44,0,1,0,0,20.87H114a4.49,4.49,0,0,1,3.2,7.59l-.25.25h0a10.43,10.43,0,0,0,0,14.76l0,0a10.35,10.35,0,0,0,7.36,3h0a10.33,10.33,0,0,0,7.38-3.06l.23-.22a4.39,4.39,0,0,1,4.89-.89l.14.05a4.4,4.4,0,0,1,2.9,4v.37a10.44,10.44,0,0,0,20.87,0V186a4.46,4.46,0,0,1,2.72-4.07,4.41,4.41,0,0,1,4.87.87l.24.24,0,0a10.36,10.36,0,0,0,7.36,3h0a10.45,10.45,0,0,0,7.37-17.83l-.22-.23a4.39,4.39,0,0,1-.89-4.89v0a4.42,4.42,0,0,1,4.05-2.69h.37a10.44,10.44,0,0,0,0-20.88Zm0,16.3h-.38a9.06,9.06,0,0,0-6.41,15.4l.24.24a5.87,5.87,0,0,1-8.29,8.31h0l-.26-.26A9.07,9.07,0,0,0,156.19,186v.7a5.87,5.87,0,0,1-11.73,0v-.42a9.34,9.34,0,0,0-15.72-6.38l-.25.25a5.78,5.78,0,0,1-4.14,1.72h0a5.82,5.82,0,0,1-4.15-1.72l0,0a5.87,5.87,0,0,1,0-8.27h0l.26-.26A9.07,9.07,0,0,0,114,156.19h-.7a5.87,5.87,0,0,1,0-11.73h.42a9.34,9.34,0,0,0,6.37-15.72l-.24-.25a5.78,5.78,0,0,1-1.72-4.14,5.86,5.86,0,0,1,1.71-4.15l0,0a5.86,5.86,0,0,1,8.26,0h0l.26.26a9,9,0,0,0,9.47,2,2.11,2.11,0,0,0,.78-.18,9,9,0,0,0,5.46-8.26v-.69a5.86,5.86,0,0,1,11.72,0v.38a9.07,9.07,0,0,0,15.4,6.41l.25-.24a5.87,5.87,0,0,1,8.29,0h0a5.82,5.82,0,0,1,1.72,4.15,5.75,5.75,0,0,1-1.71,4.14h0l-.26.26a9,9,0,0,0-2,9.47,2,2,0,0,0,.18.77,9,9,0,0,0,8.25,5.47h.7a5.86,5.86,0,0,1,0,11.72Z"/><path class="cls-1" d="M123.72,84.66a70.52,70.52,0,0,1,84.46,25.69L196,106.22a2.29,2.29,0,1,0-1.47,4.33l18.4,6.24a2.3,2.3,0,0,0,2-.28,2.28,2.28,0,0,0,1-1.79l.81-18.13a2.29,2.29,0,0,0-4.57-.2l-.49,11A75,75,0,0,0,77,167.06l4.31-1.73A70.53,70.53,0,0,1,123.72,84.66Z"/><path class="cls-1" d="M223,132.94l-4.31,1.73a70.41,70.41,0,0,1-126.94,55l11.74,2.92a2.29,2.29,0,1,0,1.1-4.44l-18.86-4.69a2.3,2.3,0,0,0-.74-.06,2.32,2.32,0,0,0-1.25.5,2.29,2.29,0,0,0-.84,1.87l.7,18.13a2.29,2.29,0,0,0,2.37,2.2,2.32,2.32,0,0,0,2.2-2.38l-.46-11.85A75,75,0,0,0,223,132.94Z"/></svg>