<svg id="Layer_1" data-name="Layer 1" xmlns="http://www.w3.org/2000/svg" viewBox="0 0 300 300"><defs><style>.cls-1{fill:#ff6720;}</style></defs><path class="cls-1" d="M214.26,141.73V99a2.4,2.4,0,0,0,0-.28c0-.18,0-.36,0-.54V96.35A9.35,9.35,0,0,0,204.91,87H81.85a9.35,9.35,0,0,0-9.35,9.35V98A2.5,2.5,0,0,0,72.26,99V207a2.46,2.46,0,0,0,.27,1.11A6.52,6.52,0,0,0,79,214H207.76a6.51,6.51,0,0,0,6.5-6.5c0-.11,0-.23,0-.34a1,1,0,0,0,0-.17V173a15.83,15.83,0,0,0,0-31.23ZM77.5,96.35A4.35,4.35,0,0,1,81.85,92H204.91a4.35,4.35,0,0,1,4.35,4.35v1.87a4.36,4.36,0,0,1-4.35,4.35H81.85a4.36,4.36,0,0,1-4.35-4.35Zm127.82,46.31-21.43-35.09h21a9.37,9.37,0,0,0,4.35-1.08v35.13A16.1,16.1,0,0,0,205.32,142.66ZM102,151.08V107.57h22.52v43.5a16.1,16.1,0,0,0-11.3,7.49A16.1,16.1,0,0,0,102,151.08Zm8.55,15.66a11.09,11.09,0,1,1-11.09-10.88A11,11,0,0,1,110.52,166.74ZM127,155.86a10.88,10.88,0,1,1-11.08,10.88A11,11,0,0,1,127,155.86Zm2.54-4.78V107.57H152v43.5a16.11,16.11,0,0,0-11.31,7.51A16.09,16.09,0,0,0,129.49,151.08Zm25,4.78a10.88,10.88,0,1,1-11.08,10.88A11,11,0,0,1,154.49,155.86ZM207.76,209H79a1.5,1.5,0,0,1,0-3H207.76a1.5,1.5,0,0,1,0,3Zm1.5-7.82a6.69,6.69,0,0,0-1.5-.18H79a6.64,6.64,0,0,0-1.74.24V106.35a9.28,9.28,0,0,0,4.59,1.22H97v43.5a15.88,15.88,0,1,0,16.22,23.85,16.15,16.15,0,0,0,27.53,0,16.11,16.11,0,0,0,29.86-8.17A16,16,0,0,0,157,151.08V107.57h21l23,37.66a15.78,15.78,0,0,0-5.7,12.11,16,16,0,0,0,13.93,15.72Zm5-33.34a11.14,11.14,0,0,1-2.85.38,10.86,10.86,0,0,1-2.15-21.55,11.78,11.78,0,0,1,2.15-.21,11.14,11.14,0,0,1,2.85.38,10.81,10.81,0,0,1,0,21Z"/></svg>