<svg id="Layer_1" data-name="Layer 1" xmlns="http://www.w3.org/2000/svg" viewBox="0 0 300 300"><defs><style>.cls-1{fill:#ff6720;}</style></defs><path class="cls-1" d="M90.28,128.45H88.55V122H94a2,2,0,0,0,0-4H88.55v-4a2,2,0,0,0-4,0v4H82.81a7.24,7.24,0,0,0,0,14.47h1.74v6.46h-7a2,2,0,0,0,0,4h7v4a2,2,0,0,0,4,0v-4h1.73a7.23,7.23,0,1,0,0-14.46Zm-7.47,0a3.24,3.24,0,0,1,0-6.47h1.74v6.47Zm7.47,10.46H88.55v-6.46h1.73a3.23,3.23,0,1,1,0,6.46Z"/><path class="cls-1" d="M217.28,159.45h-1.73V153H221a2,2,0,0,0,0-4h-5.47v-4a2,2,0,0,0-4,0v4h-1.74a7.24,7.24,0,0,0,0,14.47h1.74v6.46h-7a2,2,0,0,0,0,4h7v4a2,2,0,0,0,4,0v-4h1.73a7.23,7.23,0,1,0,0-14.46Zm-7.47,0a3.24,3.24,0,0,1,0-6.47h1.74v6.47Zm7.47,10.46h-1.73v-6.46h1.73a3.23,3.23,0,1,1,0,6.46Z"/><path class="cls-1" d="M246.1,167.67c0-.09,0-.17,0-.26a1.77,1.77,0,0,0,0-.23A1.74,1.74,0,0,0,246,167a1.14,1.14,0,0,0-.06-.25,1.54,1.54,0,0,0-.08-.19,2.06,2.06,0,0,0-.12-.26s0,0,0,0l-29.56-49.85a2.51,2.51,0,0,0-1.9-2.4L168,102.72a17.46,17.46,0,0,0,.43-3.82c0-10.56-7.75-18.53-18-18.53-9.32,0-16.48,5.47-18.57,13.54L86.89,83a2.67,2.67,0,0,0-.56-.06h-.1a2.74,2.74,0,0,0-.5.07l-.14,0a2.14,2.14,0,0,0-.47.2l-.07,0a2.35,2.35,0,0,0-.47.36l-.08.08a2.12,2.12,0,0,0-.29.38l-.06.07-30.3,51.09s0,0,0,0l-.12.26c0,.06-.06.13-.08.19a2.1,2.1,0,0,0-.06.24c0,.08,0,.16,0,.23s0,.15,0,.22a2.43,2.43,0,0,0,0,.27,1.25,1.25,0,0,0,0,.19c0,.1,0,.2.05.3a0,0,0,0,1,0,0c.07.25,7.42,24.64,32.7,24.64s32.63-24.39,32.71-24.64v0c0-.1,0-.2.06-.3l0-.19c0-.09,0-.18,0-.26a1.55,1.55,0,0,0,0-.22,1.84,1.84,0,0,0,0-.25c0-.07,0-.15,0-.23l-.1-.21a1,1,0,0,0-.11-.23s0,0,0-.05l-27.27-46,39.74,9.67c0,8.68,6.24,14.24,8.95,16.25v81.59c-7.89,2.39-29.92,10-28,20.82a2.5,2.5,0,0,0,2.46,2.07h71.14a2.49,2.49,0,0,0,2.07-1.1,7,7,0,0,0,.43-6.21c-2.2-6-11.26-11.49-27-16.17V114.33a26.45,26.45,0,0,0,5-6.88L209.48,118l-28.63,48.27,0,0-.12.26a1.54,1.54,0,0,0-.08.19,1.83,1.83,0,0,0-.06.25,1.74,1.74,0,0,0,0,.22c0,.08,0,.15,0,.23a2.25,2.25,0,0,0,0,.26,1.25,1.25,0,0,0,0,.19c0,.1,0,.2.05.3a0,0,0,0,1,0,0c.07.25,7.42,24.64,32.7,24.64s32.63-24.39,32.71-24.64v0c0-.1,0-.2.06-.3ZM86.3,156.83c-19,0-26-15.84-27.57-20L86.3,90.3l27.57,46.49C112.35,141,105.34,156.83,86.3,156.83Zm70.89-45.52a2.51,2.51,0,0,0-.9,1.92V198a2.48,2.48,0,0,0,1.82,2.4c20.18,5.77,24.45,11.27,25.35,13.37a4.38,4.38,0,0,1,.26.84H117.45c2.56-5,16.11-10.86,25.9-13.6a2.51,2.51,0,0,0,1.82-2.41V113.83a2.49,2.49,0,0,0-1.21-2.14c-.08,0-7-4.27-7.67-11.55,0-.41-.07-.82-.07-1.24a14.6,14.6,0,0,1,.49-3.8c1.56-5.88,6.77-9.73,13.72-9.73,8.46,0,13,7,13,13.53a12.54,12.54,0,0,1-.29,2.63,16.14,16.14,0,0,1-1.86,4.7A21.52,21.52,0,0,1,157.19,111.31Zm56.11,76.52c-19,0-26-15.84-27.57-20L213.3,121.3l27.57,46.48C239.32,171.93,232.16,187.83,213.3,187.83Z"/></svg>