<svg id="Layer_1" data-name="Layer 1" xmlns="http://www.w3.org/2000/svg" viewBox="0 0 300 300"><defs><style>.cls-1{fill:#ff6720;}</style></defs><path class="cls-1" d="M154.43,147.93H151.7V138.6h7.55a2.07,2.07,0,0,0,0-4.14H151.7v-5.62a2.08,2.08,0,1,0-4.15,0v5.62h-2.73a8.81,8.81,0,1,0,0,17.61h2.73v9.33h-9.47a2.07,2.07,0,0,0,0,4.14h9.47v5.62a2.08,2.08,0,1,0,4.15,0v-5.62h2.73a8.81,8.81,0,1,0,0-17.61Zm-6.88,0h-2.73a4.67,4.67,0,1,1,0-9.33h2.73Zm6.88,13.47H151.7v-9.33h2.73a4.67,4.67,0,1,1,0,9.33Z"/><path class="cls-1" d="M217.08,137.08a12.94,12.94,0,0,0-12.68,10.5H194.33A44.58,44.58,0,0,0,182.85,120l4.22-4.12a8.43,8.43,0,0,0,9.74-1.56,8.42,8.42,0,1,0-13.26-1.78l-4.14,4a44.57,44.57,0,0,0-27.17-11.3V95.63a12.89,12.89,0,1,0-4.85-.06v9.71a44.56,44.56,0,0,0-27.45,11.25l-4.61-4.72a8.41,8.41,0,1,0-3.18,3.69l4.33,4.43a44.63,44.63,0,0,0-11.56,27.65H95.6a12.92,12.92,0,1,0,0,4.84h9.32a44.59,44.59,0,0,0,11.36,27.42l-4.53,4.42a8.4,8.4,0,1,0,3.38,3.48l4.57-4.47a44.62,44.62,0,0,0,27.69,11.45v9.71a12.95,12.95,0,1,0,4.85-.06v-9.68a44.61,44.61,0,0,0,27.51-11.59l4,4.06a8.42,8.42,0,1,0,3.65-3.21l-4.22-4.31a44.58,44.58,0,0,0,11.19-27.22H204.4a12.91,12.91,0,1,0,12.68-15.34Zm-134.16,21A8.07,8.07,0,1,1,91,150,8.08,8.08,0,0,1,82.92,158.07Zm105.41-52.2a3.57,3.57,0,1,1,0,5A3.56,3.56,0,0,1,188.33,105.87Zm-46.4-23A8.07,8.07,0,1,1,150,91,8.08,8.08,0,0,1,141.93,82.92Zm-36.81,28a3.58,3.58,0,0,1,2.53-6.1,3.54,3.54,0,0,1,2.52,1.05,3.57,3.57,0,1,1-5,5Zm5,83.21a3.57,3.57,0,1,1-2.52-6.1,3.54,3.54,0,0,1,2.52,1.05A3.58,3.58,0,0,1,110.17,194.13Zm47.9,23A8.07,8.07,0,1,1,150,209,8.08,8.08,0,0,1,158.07,217.08ZM190.86,188a3.58,3.58,0,1,1-2.53,1.05A3.55,3.55,0,0,1,190.86,188Zm-41.24,1.89A39.92,39.92,0,1,1,189.55,150,40,40,0,0,1,149.62,189.92Zm67.46-31.85a8.07,8.07,0,1,1,8.07-8.07A8.08,8.08,0,0,1,217.08,158.07Z"/></svg>