<svg id="Layer_1" data-name="Layer 1" xmlns="http://www.w3.org/2000/svg" viewBox="0 0 262.63 300.14"><defs><style>.cls-1{opacity:0.15;}.cls-2{fill:#fff;}</style></defs><g class="cls-1"><path class="cls-2" d="M38.81,201.4H12.91a11.11,11.11,0,0,0-11.1,11.1v74.36A11.11,11.11,0,0,0,12.91,298h25.9a11.11,11.11,0,0,0,11.1-11.1V212.5A11.11,11.11,0,0,0,38.81,201.4Zm1.56,85.46a1.56,1.56,0,0,1-1.56,1.56H12.91a1.56,1.56,0,0,1-1.56-1.56V212.5A1.56,1.56,0,0,1,12.91,211h25.9a1.56,1.56,0,0,1,1.56,1.55Z"/><path class="cls-2" d="M108.21,174.92H84.11a12,12,0,0,0-12,12V286a12,12,0,0,0,12,12h24.1a12,12,0,0,0,12-12V186.92A12,12,0,0,0,108.21,174.92ZM110.67,286a2.46,2.46,0,0,1-2.46,2.45H84.11A2.45,2.45,0,0,1,81.66,286V186.92a2.46,2.46,0,0,1,2.45-2.46h24.1a2.46,2.46,0,0,1,2.46,2.46Z"/><path class="cls-2" d="M177.52,141.5H155.41a13,13,0,0,0-13,13V285a13,13,0,0,0,13,13h22.11a13,13,0,0,0,13-13V154.5A13,13,0,0,0,177.52,141.5ZM181,285a3.46,3.46,0,0,1-3.45,3.45H155.41A3.46,3.46,0,0,1,152,285V154.5a3.46,3.46,0,0,1,3.45-3.46h22.11A3.46,3.46,0,0,1,181,154.5Z"/><path class="cls-2" d="M246.53,91.69H227A14.3,14.3,0,0,0,212.72,106V283.68A14.3,14.3,0,0,0,227,298h19.53a14.3,14.3,0,0,0,14.28-14.28V106A14.3,14.3,0,0,0,246.53,91.69Zm4.74,192a4.75,4.75,0,0,1-4.74,4.74H227a4.75,4.75,0,0,1-4.74-4.74V106a4.75,4.75,0,0,1,4.74-4.74h19.53a4.75,4.75,0,0,1,4.74,4.74Z"/><path class="cls-2" d="M238.65,2.18a21.81,21.81,0,0,0-15.54,37.13L182.46,84.14,135.94,68.89a17.5,17.5,0,1,0-29.62,13L89.72,140.6,52.12,109a4.78,4.78,0,0,0-6.36.19L27.49,126.51a18,18,0,1,0,7.4,6.13L49.24,119l40,33.63a4.77,4.77,0,0,0,7.66-2.36L115,86.4a17.5,17.5,0,0,0,18.56-8.27l48.91,16a4.77,4.77,0,0,0,5-1.32l43.83-48.33a21.54,21.54,0,0,0,7.38,1.32,21.83,21.83,0,1,0,0-43.66ZM20.13,151.36a8.45,8.45,0,1,1,8.45-8.45A8.46,8.46,0,0,1,20.13,151.36Zm98.32-74.15a8,8,0,1,1,8-8A8,8,0,0,1,118.45,77.21Zm120.2-40.92A12.29,12.29,0,1,1,250.94,24,12.3,12.3,0,0,1,238.65,36.29Z"/></g></svg>