<svg id="Layer_1" data-name="Layer 1" xmlns="http://www.w3.org/2000/svg" viewBox="0 0 300 300"><defs><style>.cls-1{fill:#ff6720;}</style></defs><path class="cls-1" d="M149.43,75a2.37,2.37,0,0,0-1.24.37L66.34,123.53A2.41,2.41,0,0,0,67.65,128H82.52a7.07,7.07,0,0,0,4.36,9.18v63.5a7.26,7.26,0,0,0-4.81,6.79,6.82,6.82,0,0,0,.45,2.4h-.45c-5.3,0-11.13,4.56-9.64,9.64,1,3.47,4.34,5.52,9.64,5.52H216.92c5.29,0,8.59-1,9.63-5.52,1.19-5.16-4.34-9.64-9.63-9.64h-.45a7.05,7.05,0,0,0,.45-2.4,7.27,7.27,0,0,0-4.82-6.79v-63.5a7.24,7.24,0,0,0,4.82-6.77,7.16,7.16,0,0,0-.45-2.41h15.89a2.41,2.41,0,0,0,2.41-2.41,2.39,2.39,0,0,0-1.1-2L150.8,75.38A2.47,2.47,0,0,0,149.43,75Zm.06,5.28,76,42.87h-150ZM89.29,128h9.63a2.41,2.41,0,1,1,0,4.82H89.29a2.41,2.41,0,0,1,0-4.82Zm16.41,0h5.72a6.93,6.93,0,0,0-.46,2.41,7.24,7.24,0,0,0,4.82,6.77v63.5a7.27,7.27,0,0,0-4.82,6.79,6.83,6.83,0,0,0,.46,2.4H105.7a7.05,7.05,0,0,0,.45-2.4,7.27,7.27,0,0,0-4.82-6.79v-63.5a7.24,7.24,0,0,0,4.82-6.77A7.16,7.16,0,0,0,105.7,128Zm12.49,0h9.63a2.41,2.41,0,0,1,0,4.82h-9.63a2.41,2.41,0,0,1,0-4.82Zm16.4,0h29.8a7.16,7.16,0,0,0-.45,2.41,7.24,7.24,0,0,0,4.82,6.77v63.5a7.27,7.27,0,0,0-4.82,6.79,7.05,7.05,0,0,0,.45,2.4h-29.8a6.83,6.83,0,0,0,.46-2.4,7.27,7.27,0,0,0-4.82-6.79v-63.5a7.24,7.24,0,0,0,4.82-6.77A6.93,6.93,0,0,0,134.59,128Zm36.58,0h9.63a2.41,2.41,0,0,1,0,4.82h-9.63a2.41,2.41,0,1,1,0-4.82Zm16.4,0h5.72a7.16,7.16,0,0,0-.45,2.41,7.24,7.24,0,0,0,4.82,6.77v63.5a7.27,7.27,0,0,0-4.82,6.79,7.05,7.05,0,0,0,.45,2.4h-5.72a6.82,6.82,0,0,0,.45-2.4,7.26,7.26,0,0,0-4.81-6.79v-63.5a7.07,7.07,0,0,0,4.36-9.18Zm12.49,0h9.64a2.41,2.41,0,0,1,0,4.82h-9.64a2.41,2.41,0,0,1,0-4.82ZM91.7,137.6h4.82v62.61H91.7Zm28.9,0h4.81v62.61H120.6Zm53,0h4.82v62.61h-4.82Zm28.9,0h4.82v62.61h-4.82ZM89.29,205h9.63a2.41,2.41,0,1,1,0,4.81H89.29a2.41,2.41,0,1,1,0-4.81Zm28.9,0h9.63a2.41,2.41,0,1,1,0,4.81h-9.63a2.41,2.41,0,1,1,0-4.81Zm53,0h9.63a2.41,2.41,0,1,1,0,4.81h-9.63a2.41,2.41,0,1,1,0-4.81Zm28.89,0h9.64a2.41,2.41,0,0,1,0,4.81h-9.64a2.41,2.41,0,0,1,0-4.81Zm-118,9.63H216.92c2.71,0,4.82,1.36,4.82,3.12s-2.11,3.11-4.82,3.11H82.07c-2.71,0-4.82-1.36-4.82-3.11S79.36,214.66,82.07,214.66Z"/></svg>