<svg id="Layer_1" data-name="Layer 1" xmlns="http://www.w3.org/2000/svg" viewBox="0 0 300 300"><defs><style>.cls-1{fill:#ff6720;}</style></defs><path class="cls-1" d="M99.44,173.55H84.87a6.07,6.07,0,0,0-6.06,6.06v41.83a6.07,6.07,0,0,0,6.06,6.06H99.44a6.07,6.07,0,0,0,6.06-6.06V179.61A6.07,6.07,0,0,0,99.44,173.55Zm1.06,47.89a1.07,1.07,0,0,1-1.06,1.06H84.87a1.07,1.07,0,0,1-1.06-1.06V179.61a1.06,1.06,0,0,1,1.06-1.06H99.44a1.06,1.06,0,0,1,1.06,1.06Z"/><path class="cls-1" d="M138.48,158.65H124.92a6.57,6.57,0,0,0-6.56,6.57v55.71a6.57,6.57,0,0,0,6.56,6.57h13.56a6.58,6.58,0,0,0,6.57-6.57V165.22A6.58,6.58,0,0,0,138.48,158.65Zm1.57,62.28a1.57,1.57,0,0,1-1.57,1.57H124.92a1.56,1.56,0,0,1-1.56-1.57V165.22a1.56,1.56,0,0,1,1.56-1.57h13.56a1.57,1.57,0,0,1,1.57,1.57Z"/><path class="cls-1" d="M177.47,139.85H165a7.13,7.13,0,0,0-7.12,7.13v73.39A7.13,7.13,0,0,0,165,227.5h12.44a7.13,7.13,0,0,0,7.12-7.13V147A7.13,7.13,0,0,0,177.47,139.85Zm2.12,80.52a2.12,2.12,0,0,1-2.12,2.13H165a2.12,2.12,0,0,1-2.12-2.13V147a2.12,2.12,0,0,1,2.12-2.13h12.44a2.12,2.12,0,0,1,2.12,2.13Z"/><path class="cls-1" d="M216.29,111.83h-11a7.86,7.86,0,0,0-7.85,7.85v100a7.86,7.86,0,0,0,7.85,7.85h11a7.86,7.86,0,0,0,7.85-7.85v-100A7.86,7.86,0,0,0,216.29,111.83Zm2.85,107.82a2.86,2.86,0,0,1-2.85,2.85h-11a2.85,2.85,0,0,1-2.85-2.85v-100a2.85,2.85,0,0,1,2.85-2.85h11a2.86,2.86,0,0,1,2.85,2.85Z"/><path class="cls-1" d="M135.63,140.86c37.8-18.29,65-38.3,81-59.55V97a2.5,2.5,0,1,0,5,0V75a2.5,2.5,0,0,0-2.5-2.5,2.62,2.62,0,0,0-.57.07,2.16,2.16,0,0,0-.51-.07H197.76a2.5,2.5,0,0,0,0,5h15.52c-37.78,51-134.65,81-135.65,81.26a2.5,2.5,0,0,0,.73,4.89,2.25,2.25,0,0,0,.72-.11A440.94,440.94,0,0,0,135.63,140.86Z"/></svg>