<svg id="Layer_1" data-name="Layer 1" xmlns="http://www.w3.org/2000/svg" viewBox="0 0 300 300"><defs><style>.cls-1{fill:#003057;}</style></defs><path class="cls-1" d="M218.18,193.91a3.83,3.83,0,0,0-3.82,3.82v6.53a10.07,10.07,0,0,1-9,10.06,8.38,8.38,0,0,1-.86,0c-3.78,0-8.65-2.67-9.89-10.22-1.66-10-3-18.5-4.25-26.74-.91-5.83-1.76-11.34-2.7-17.17l-.11-.66.19-.64c2.47-8.73,5.07-18.69,7.82-29.24,3.12-12,6.66-25.52,10.79-40.27A3.82,3.82,0,1,0,199,87.35c-4.16,14.84-7.7,28.41-10.82,40.39l-.46,1.76-3.07,11.77-2.75-11.85c-2.47-10.63-5.13-18.68-8.36-25.35C164.8,86,151.23,78,129.55,78c-17.25,0-31,7.53-39.89,21.77C82,112,78,129.41,78,150s4,38,11.66,50.23C98.51,214.47,112.3,222,129.55,222c20.15,0,33.41-7.18,43-23.29a95.12,95.12,0,0,0,5.91-12l4.09-9.8,1.65,10.49c1.09,7,2,12.53,2.88,18,1.65,9.93,8.65,16.61,17.43,16.61h.32c9.47-.17,17.17-8.22,17.17-18v-6.31A3.82,3.82,0,0,0,218.18,193.91ZM179.52,159.7C173,182,167.59,194.26,160.84,202.07c-7.45,8.62-16.81,12.29-31.29,12.29-14.88,0-25.81-5.94-33.41-18.16-6.87-11.06-10.5-27-10.5-46.2s3.63-35.14,10.5-46.2c7.6-12.22,18.53-18.16,33.41-18.16,16.86,0,27.16,5,34.43,16.71,7.15,11.53,11.28,30,15.62,56l.11.67Z"/></svg>