<svg id="Layer_1" data-name="Layer 1" xmlns="http://www.w3.org/2000/svg" viewBox="0 0 300 300"><defs><style>.cls-1{fill:#ff6720;}</style></defs><path class="cls-1" d="M206,95.37,153.17,75.58a9,9,0,0,0-6.34,0L94.05,95.37a9.06,9.06,0,0,0-5.86,8.45V150c0,19.14,9.92,37.52,29.49,54.63A150.79,150.79,0,0,0,137,218.91l3.64,2.21c1.12.66,2.13,1.23,3.05,1.74l2.23,1.17.05,0a8.93,8.93,0,0,0,4,.95,9.11,9.11,0,0,0,4.09-1l2.26-1.19c2-1.1,4.31-2.46,6.68-3.94a151,151,0,0,0,19.3-14.27c19.57-17.11,29.49-35.49,29.49-54.63V103.82A9.07,9.07,0,0,0,206,95.37ZM207,150c0,17.68-9.37,34.84-27.83,51a145.77,145.77,0,0,1-18.68,13.81c-2.9,1.82-5.11,3.07-6.41,3.79l-2.18,1.15a4.23,4.23,0,0,1-3.72,0L146,218.6c-.85-.47-1.82-1-2.87-1.64l-3.59-2.17A147.26,147.26,0,0,1,120.86,201C102.4,184.84,93,167.68,93,150V103.82a4.2,4.2,0,0,1,2.72-3.92l52.78-19.79a4.14,4.14,0,0,1,2.94,0L204.25,99.9a4.2,4.2,0,0,1,2.72,3.92Z"/><path class="cls-1" d="M167.23,137.11h-1.72v-8.77a13.42,13.42,0,0,0-.42-3.4c-.91-3.43-4.21-11.38-15.09-11.51h-.25c-10.89.13-14.18,8.08-15.09,11.51a13.42,13.42,0,0,0-.43,3.4v8.77h-1.46a9.14,9.14,0,0,0-9.13,9.13v32.22a9.13,9.13,0,0,0,9.13,9.13h34.46a9.13,9.13,0,0,0,9.13-9.13V146.24A9.14,9.14,0,0,0,167.23,137.11Zm-28.16-8.77a8.3,8.3,0,0,1,.27-2.16c.95-3.59,3.55-7.87,10.53-7.92s9.59,4.33,10.54,7.92a8.3,8.3,0,0,1,.27,2.16v8.77H139.07Zm32.46,50.12a4.3,4.3,0,0,1-4.3,4.29H132.77a4.3,4.3,0,0,1-4.3-4.29V146.24a4.3,4.3,0,0,1,4.3-4.29h34.46a4.3,4.3,0,0,1,4.3,4.29Z"/><path class="cls-1" d="M155.24,166.47l-3-6h0a3.74,3.74,0,1,0-4.68-.15h0l-2.8,6.15s-2.24,5.23,5.24,5.23S155.24,166.47,155.24,166.47Z"/></svg>